<svg width="24" height="24" viewBox="0 0 24 24" fill="none" xmlns="http://www.w3.org/2000/svg">
<path d="M10.667 2.66669C9.08475 2.66669 7.53803 3.13588 6.22243 4.01493C4.90684 4.89398 3.88146 6.14341 3.27596 7.60522C2.67046 9.06703 2.51203 10.6756 2.82071 12.2274C3.1294 13.7793 3.89132 15.2047 5.01014 16.3235C6.12896 17.4424 7.55443 18.2043 9.10627 18.513C10.6581 18.8217 12.2667 18.6632 13.7285 18.0577C15.1903 17.4522 16.4397 16.4268 17.3188 15.1113C18.1978 13.7957 18.667 12.2489 18.667 10.6667C18.667 8.54496 17.8241 6.51012 16.3239 5.00983C14.8236 3.50954 12.7887 2.66669 10.667 2.66669ZM10.667 17.2734C9.34591 17.2733 8.05463 16.8807 6.95703 16.1455C5.85944 15.4103 5.00504 14.3655 4.50227 13.1439C3.99949 11.9222 3.87102 10.5787 4.13316 9.28386C4.39529 7.98904 5.03622 6.8013 5.97458 5.87138C6.91294 4.94146 8.10643 4.31131 9.40356 4.06089C10.7007 3.81047 12.043 3.95108 13.2601 4.46488C14.4771 4.97867 15.5141 5.84249 16.2394 6.94668C16.9647 8.05087 17.3456 9.34566 17.3337 10.6667C17.3178 12.4244 16.6085 14.1047 15.36 15.342C14.1114 16.5793 12.4248 17.2734 10.667 17.2734Z" fill="#8F90A6"/>
<path d="M21.1399 19.7933L17.6933 16.3467C17.4092 16.6981 17.0995 17.0279 16.7666 17.3333L20.1999 20.7667C20.3275 20.8759 20.4915 20.933 20.6593 20.9265C20.8271 20.92 20.9862 20.8505 21.105 20.7317C21.2237 20.613 21.2933 20.4538 21.2997 20.286C21.3062 20.1183 21.2492 19.9542 21.1399 19.8267V19.7933Z" fill="#8F90A6"/>
</svg>
