<svg width="37" height="37" viewBox="0 0 37 37" fill="none" xmlns="http://www.w3.org/2000/svg">
<path opacity="0.25" fill-rule="evenodd" clip-rule="evenodd" d="M18.5 35.9104C28.165 35.9104 36 28.0754 36 18.4104C36 8.74542 28.165 0.9104 18.5 0.9104C8.83502 0.9104 1 8.74542 1 18.4104C1 28.0754 8.83502 35.9104 18.5 35.9104Z" stroke="white" stroke-width="1.5"/>
<path d="M20.0932 13.9309H21.7016C21.8495 13.9309 21.9696 13.8178 21.9696 13.6783V12.1628C21.9696 12.0233 21.8495 11.9102 21.7016 11.9102H20.0932C18.4677 11.9102 17.1445 13.1565 17.1445 14.6887V16.4569H15.2681C15.1201 16.4569 15 16.5701 15 16.7095V18.2251C15 18.3645 15.1201 18.4777 15.2681 18.4777H17.1445V23.7823C17.1445 23.9217 17.2646 24.0349 17.4126 24.0349H19.0209C19.1689 24.0349 19.289 23.9217 19.289 23.7823V18.4777H21.1655C21.2807 18.4777 21.3831 18.408 21.4201 18.3049L21.9562 16.7893C21.9836 16.7125 21.9696 16.6277 21.9192 16.5615C21.8683 16.4958 21.7879 16.4569 21.7016 16.4569H19.289V14.6887C19.289 14.2709 19.6498 13.9309 20.0932 13.9309Z" fill="white"/>
</svg>
