<svg width="37" height="37" viewBox="0 0 37 37" fill="none" xmlns="http://www.w3.org/2000/svg">
<path d="M16.1746 14.2894V25.999H19.9636V20.2084C19.9636 18.6804 20.2632 17.2006 22.2376 17.2006C24.1849 17.2006 24.209 18.9476 24.209 20.3048V26H28V19.5785C28 16.4241 27.2923 14 23.45 14C21.6053 14 20.3687 14.9714 19.8631 15.8907H19.8118V14.2894H16.1746ZM10 14.2894H13.795V25.999H10V14.2894Z" fill="#3A3A3C"/>
<path d="M12 13C13.1046 13 14 12.1046 14 11C14 9.89543 13.1046 9 12 9C10.8954 9 10 9.89543 10 11C10 12.1046 10.8954 13 12 13Z" fill="#3A3A3C"/>
<circle cx="18.5" cy="18.5" r="18" stroke="#3A3A3C"/>
</svg>
