<svg width="810" height="600" viewBox="0 0 810 600" fill="none" xmlns="http://www.w3.org/2000/svg">
<g clip-path="url(#clip0_1239_393)">
<path opacity="0.1" d="M269.291 599.663C308.738 599.663 340.715 594.292 340.715 587.666C340.715 581.041 308.738 575.67 269.291 575.67C229.845 575.67 197.867 581.041 197.867 587.666C197.867 594.292 229.845 599.663 269.291 599.663Z" fill="#5811B0"/>
<path opacity="0.1" d="M657.542 600C706.765 600 746.668 594.629 746.668 588.004C746.668 581.378 706.765 576.007 657.542 576.007C608.319 576.007 568.416 581.378 568.416 588.004C568.416 594.629 608.319 600 657.542 600Z" fill="#5811B0"/>
<path opacity="0.1" d="M10.1448 259.243H84.5375V365.278H15.591C15.4077 366.367 15.2318 367.463 15.0412 368.559H84.5375V454.074C84.4128 454.036 84.3029 453.99 84.1856 453.944C82.2212 453.131 80.2714 452.273 78.3216 451.353L77.0755 450.763C75.1208 449.797 73.1661 448.775 71.2114 447.697C70.5297 447.321 69.848 446.93 69.1737 446.531C58.3221 440.175 48.4641 432.12 39.9414 422.646C39.6922 422.393 39.4576 422.125 39.2084 421.88C38.021 420.53 36.8555 419.166 35.7266 417.771L34.4805 416.238C33.1465 414.528 31.8564 412.773 30.6029 410.995C30.4197 410.734 30.2438 410.473 30.0532 410.228C24.9555 402.837 20.7228 394.833 17.4455 386.389C17.3429 386.136 17.2549 385.86 17.1596 385.622C16.153 382.914 15.2611 380.18 14.4842 377.42C14.147 376.263 13.8245 375.121 13.5459 373.917C13.4433 373.565 13.3553 373.22 13.2747 372.875C9.11123 355.881 8.62012 338.227 8.62012 320.697C8.62012 318.65 8.62012 316.596 8.62012 314.564C8.62012 307.474 8.70075 300.337 8.81803 293.208C8.81803 291.361 8.89133 289.521 8.92798 287.666C9.0306 282.96 9.1772 278.253 9.36778 273.547C9.41176 272.236 9.4704 270.933 9.53637 269.63C9.53637 268.879 9.57302 268.127 9.64633 267.376C9.82225 264.647 9.96885 261.941 10.1448 259.243Z" fill="#5811B0"/>
<path opacity="0.1" d="M84.5376 141.181H43.7312C50.3645 130.324 57.6122 119.89 65.4355 109.937C71.4974 102.149 77.8966 94.5601 84.5376 87.2473V141.181Z" fill="#5811B0"/>
<path opacity="0.1" d="M84.5375 144.462V255.962H10.3794C10.3794 255.64 10.4307 255.311 10.4527 254.989C10.5187 254.107 10.5846 253.226 10.6579 252.352C10.7386 251.325 10.8265 250.29 10.9218 249.286C11.0171 248.282 11.1197 247.055 11.2297 245.944C11.3396 244.832 11.4423 243.705 11.5669 242.594C11.6915 241.482 11.8014 240.371 11.9334 239.267C12.0653 238.163 12.1826 237.044 12.3219 235.94C12.4318 235.021 12.5491 234.108 12.6664 233.189C12.835 231.893 13.0109 230.59 13.2015 229.302C13.2015 229.111 13.2528 228.911 13.2821 228.727C14.62 219.3 16.4429 209.955 18.743 200.733C21.1506 191.06 24.2251 181.581 27.9422 172.371C31.8928 162.737 36.5185 153.422 41.7813 144.5L84.5375 144.462Z" fill="#5811B0"/>
<path opacity="0.1" d="M102.298 259.235V365.278H261.192V259.235H102.298ZM102.298 368.551V459.616C103.207 459.815 104.109 460.007 105.003 460.168C106.22 460.413 107.429 460.636 108.668 460.827C108.902 460.866 109.144 460.904 109.401 460.927C109.885 461.011 110.383 461.08 110.867 461.149C112.091 461.326 113.308 461.471 114.532 461.586C115.111 461.647 115.697 461.701 116.284 461.747L117.699 461.862C118.468 461.923 119.231 461.969 119.986 461.992C120.455 461.992 120.924 462.038 121.408 462.054C121.774 462.054 122.141 462.054 122.522 462.054C122.903 462.054 123.445 462.054 123.907 462.054C124.537 462.054 125.168 462.054 125.791 462.054H126.634C127.264 462.054 127.895 462.054 128.518 461.992H128.562C128.994 461.992 129.434 461.992 129.874 461.931C129.996 461.939 130.118 461.939 130.24 461.931C130.607 461.931 130.973 461.931 131.325 461.877H131.582L134.037 461.678C134.844 461.602 135.657 461.502 136.478 461.41L138.149 461.203C144.949 460.207 151.672 458.711 158.27 456.726C173.092 452.403 187.591 446.355 202.405 441.924C221.558 436.214 242.72 433.408 261.228 440.391V368.551H102.298ZM261.192 141.181V0.00765303C243.795 -0.189442 226.447 1.93832 209.566 6.33926C169.331 16.9098 133.231 39.837 102.298 69.1187V141.173H110.273V144.446H102.298V255.962H261.192V144.454H143.017V141.181H261.192ZM465.282 93.4946C455.328 93.1267 445.432 89.8306 436.482 84.7408C419.367 75.0057 405.696 59.9739 390.42 47.2877C358.681 20.8652 319.319 4.92116 278.938 0.965826V141.181H505.766L506.331 140.56L465.282 93.4946ZM485.946 89.6619L507.855 114.804V83.0697C500.518 84.0202 494.089 86.2815 485.975 89.6313L485.946 89.6619ZM507.855 482.229V368.551H461.17C461.045 368.069 460.921 367.578 460.774 367.087C460.914 367.578 461.031 368.069 461.163 368.551H278.967V450.763C280.697 452.104 282.405 453.515 284.098 454.948C285.923 456.481 287.726 458.098 289.537 459.685L291.362 461.264C292.234 462.031 293.114 462.797 294.001 463.518C295.76 465.01 297.536 466.482 299.33 467.933C300.217 468.7 301.126 469.39 302.027 470.11C316.341 481.554 331.44 491.882 347.202 501.009C350.736 503.053 354.3 505.049 357.897 506.996C360.294 508.276 362.705 509.548 365.124 510.783C368.76 512.638 372.425 514.426 376.119 516.148C410.18 532.137 446.196 543.109 483.138 548.749C491.343 550.017 499.58 551.013 507.848 551.739V482.221H508.581L507.855 482.229ZM278.967 144.454V255.962H507.884V144.454H278.967ZM278.967 259.235V365.278H507.884V259.235H278.967ZM525.653 82.9317V118.33L553.617 86.2432C544.352 84.6794 535.03 83.5629 525.653 82.8934V82.9317ZM525.653 259.274V365.278H748.303V259.235L525.653 259.274ZM747.489 490.646L748.273 368.551H525.653V552.958C539.994 553.588 554.357 553.408 568.68 552.421H568.929C575.771 551.971 582.58 551.317 589.358 550.459H589.512C625.672 546.058 661.029 536.192 694.478 521.169M791.235 276.697C790.399 274.635 789.527 272.589 788.64 270.565C786.984 266.732 785.232 263.007 783.428 259.281H766.056V365.278H809.978C809.956 335.261 802.692 304.599 791.257 276.659L791.235 276.697ZM766.056 368.59V473.605C778.429 461.203 788.882 447.014 796.41 430.794C805.463 411.263 809.604 390.114 809.941 368.574L766.056 368.59ZM766.056 228.375V255.97H781.801C777.038 246.47 771.789 237.246 766.078 228.336L766.056 228.375ZM615.057 103.736C613.899 103.276 612.741 102.808 611.575 102.356C599.284 97.6089 586.723 93.6613 573.965 90.5358L531.172 139.648L530.351 140.56L530.901 141.189H683.205C661.993 125.92 639.125 113.335 615.079 103.697L615.057 103.736ZM687.669 144.492H528.775L525.653 147.482V255.962H553.023H553.067H748.332V203.416C730.668 181.076 710.281 161.253 687.691 144.454L687.669 144.492Z" fill="#5811B0"/>
<path opacity="0.1" d="M84.5375 200.703V255.962H10.3794C10.3794 255.64 10.4307 255.311 10.4527 254.989C10.5187 254.107 10.5846 253.226 10.6579 252.352C10.7386 251.325 10.8265 250.29 10.9218 249.286C11.0171 248.282 11.1197 247.055 11.2297 245.944C11.3396 244.832 11.4423 243.705 11.5669 242.594C11.6915 241.482 11.8014 240.371 11.9334 239.267C12.0653 238.163 12.1826 237.044 12.3219 235.94C12.4318 235.021 12.5491 234.108 12.6664 233.189C12.835 231.893 13.0109 230.59 13.2015 229.302C13.2015 229.111 13.2528 228.911 13.2821 228.727C14.62 219.3 16.4429 209.955 18.743 200.733L84.5375 200.703Z" fill="#5811B0"/>
<path opacity="0.1" d="M10.1448 259.243H84.5375V365.278H15.591C15.4077 366.367 15.2318 367.463 15.0412 368.559H84.5375V454.074C84.4128 454.036 84.3029 453.99 84.1856 453.944C82.2212 453.131 80.2714 452.273 78.3216 451.353L77.0755 450.763C75.1208 449.797 73.1661 448.775 71.2114 447.697C70.5297 447.321 69.848 446.93 69.1737 446.531C58.3221 440.175 48.4641 432.12 39.9414 422.646C39.6922 422.393 39.4576 422.125 39.2084 421.88C38.021 420.53 36.8555 419.166 35.7266 417.771L34.4805 416.238C33.1465 414.528 31.8564 412.773 30.6029 410.995C30.4197 410.734 30.2438 410.473 30.0532 410.228C24.9555 402.837 20.7228 394.833 17.4455 386.389C17.3429 386.136 17.2549 385.86 17.1596 385.622C16.153 382.914 15.2611 380.18 14.4842 377.42C14.147 376.263 13.8245 375.121 13.5459 373.917C13.4433 373.565 13.3553 373.22 13.2747 372.875C9.11123 355.881 8.62012 338.227 8.62012 320.697C8.62012 318.65 8.62012 316.596 8.62012 314.564C8.62012 307.474 8.70075 300.337 8.81803 293.208C8.81803 291.361 8.89133 289.521 8.92798 287.666C9.0306 282.96 9.1772 278.253 9.36778 273.547C9.41176 272.236 9.4704 270.933 9.53637 269.63C9.53637 268.879 9.57302 268.127 9.64633 267.376C9.82225 264.647 9.96885 261.941 10.1448 259.243Z" fill="#5811B0"/>
<path opacity="0.1" d="M158.234 160.421V255.962H102.298V160.421H110.273V128.073H143.009V160.421H158.234Z" fill="#5811B0"/>
<path opacity="0.1" d="M158.234 259.235H102.305V365.271H158.234V259.235Z" fill="#5811B0"/>
<path opacity="0.1" d="M102.298 368.559H158.234V456.711C151.636 458.694 144.912 460.187 138.113 461.18L136.441 461.395C135.621 461.494 134.807 461.579 134.001 461.663C133.194 461.747 132.359 461.809 131.545 461.862H131.288C130.937 461.862 130.555 461.908 130.211 461.916H129.837C129.397 461.916 128.957 461.962 128.518 461.977C127.895 462.016 127.272 462.023 126.634 462.031C126.363 462.031 126.106 462.031 125.835 462.031C125.205 462.031 124.581 462.031 123.951 462.031H122.566C122.192 462.031 121.833 462.031 121.444 462.031L120.029 461.977C119.296 461.977 118.505 461.893 117.743 461.839L116.335 461.732L114.583 461.563C113.352 461.448 112.128 461.303 110.918 461.126L109.452 460.912L108.719 460.804C107.495 460.605 106.286 460.39 105.054 460.145C104.153 459.984 103.258 459.785 102.349 459.593L102.298 368.559Z" fill="#5811B0"/>
<path opacity="0.1" d="M507.885 149.138H461.764V255.955H507.885V149.138Z" fill="#5811B0"/>
<path opacity="0.1" d="M507.892 259.235V365.278H278.967V319.539H400.902V346.521H461.764V259.235H507.892Z" fill="#5811B0"/>
<path opacity="0.1" d="M508.618 482.252H507.885V551.815C499.626 551.085 491.392 550.091 483.182 548.834C446.221 543.175 410.19 532.18 376.12 516.164C366.283 511.534 356.646 506.48 347.21 501.002C331.448 491.87 316.346 481.542 302.027 470.102C298.431 467.22 294.881 464.272 291.377 461.257C288.951 459.164 286.539 457.018 284.098 454.933C282.405 453.499 280.697 452.089 278.967 450.74V368.559H461.155C461.031 368.069 460.906 367.578 460.774 367.095C460.914 367.578 461.046 368.069 461.17 368.559H507.885V482.206C508.134 482.214 508.376 482.237 508.618 482.252Z" fill="#5811B0"/>
<path opacity="0.1" d="M628.171 141.181H598.117V131.415H611.59V102.325C612.758 102.77 613.921 103.227 615.079 103.697V131.415H628.171V141.181Z" fill="#5811B0"/>
<path opacity="0.1" d="M700.577 255.962H553.038C553.038 255.962 553.038 255.962 553.089 256.001L553.023 255.962H525.653V149.145H533.408V228.099H568.849V181.34H598.125V144.462H628.178V181.371H657.454V228.129H700.577V255.962Z" fill="#5811B0"/>
<path opacity="0.1" d="M525.653 259.235V365.278H700.577V259.235H525.653ZM748.061 490.101L748.303 406.165H700.577V368.605H525.653V552.958C539.994 553.588 554.357 553.408 568.68 552.421H568.929C575.771 551.971 582.58 551.317 589.358 550.459H589.512C625.672 546.058 661.029 536.192 694.478 521.169" fill="#5811B0"/>
<path opacity="0.1" d="M769.164 368.559H809.971C809.612 390.091 805.477 411.24 796.432 430.771C788.904 446.999 778.444 461.188 766.086 473.583V406.127H769.164V368.559Z" fill="#5811B0"/>
<path opacity="0.1" d="M809.993 365.278H769.164V276.659H791.257C802.692 304.599 809.956 335.261 809.993 365.278Z" fill="#5811B0"/>
<path opacity="0.1" d="M507.892 178.833H483.182V212.323H507.892V178.833Z" fill="#5811B0"/>
<path opacity="0.1" d="M507.892 248.251H483.182V255.962H507.892V248.251Z" fill="#5811B0"/>
<path opacity="0.1" d="M507.892 259.235H483.182V281.733H507.892V259.235Z" fill="#5811B0"/>
<path opacity="0.1" d="M507.892 317.669H483.182V351.159H507.892V317.669Z" fill="#5811B0"/>
<path opacity="0.1" d="M507.892 387.086H483.182V420.576H507.892V387.086Z" fill="#5811B0"/>
<path opacity="0.1" d="M507.885 482.206C508.134 482.206 508.376 482.206 508.618 482.252H507.885V490.032H483.182V456.504H507.885V482.206Z" fill="#5811B0"/>
<path opacity="0.1" d="M507.885 525.906V551.777C499.626 551.046 491.392 550.052 483.182 548.795V525.906H507.885Z" fill="#5811B0"/>
<path opacity="0.1" d="M384.864 362.818H278.967V365.278H384.864V362.818Z" fill="#5811B0"/>
<path opacity="0.1" d="M384.864 368.552H278.967V377.98H384.864V368.552Z" fill="#5811B0"/>
<path opacity="0.1" d="M384.864 408.887H278.967V424.049H384.864V408.887Z" fill="#5811B0"/>
<path opacity="0.1" d="M384.857 454.956V470.118H302.027C298.431 467.246 294.878 464.297 291.37 461.272C288.943 459.179 286.539 457.033 284.091 454.956H384.857Z" fill="#5811B0"/>
<path opacity="0.1" d="M384.857 501.017V516.164H376.112C366.285 511.529 356.651 506.472 347.21 500.994L384.857 501.017Z" fill="#5811B0"/>
<path opacity="0.1" d="M589.534 269.515H568.688V291.315H589.534V269.515Z" fill="#5811B0"/>
<path opacity="0.1" d="M138.164 167.941H117.317V189.741H138.164V167.941Z" fill="#5811B0"/>
<path opacity="0.1" d="M138.164 218.578H117.317V240.379H138.164V218.578Z" fill="#5811B0"/>
<path opacity="0.1" d="M138.164 269.216H117.317V291.016H138.164V269.216Z" fill="#5811B0"/>
<path opacity="0.1" d="M138.164 319.846H117.317V341.646H138.164V319.846Z" fill="#5811B0"/>
<path opacity="0.1" d="M138.164 370.483H117.317V392.283H138.164V370.483Z" fill="#5811B0"/>
<path opacity="0.1" d="M138.164 421.121H117.317V442.921H138.164V421.121Z" fill="#5811B0"/>
<path opacity="0.1" d="M669.116 269.515H648.27V291.315H669.116V269.515Z" fill="#5811B0"/>
<path opacity="0.1" d="M589.534 323.287H568.688V345.088H589.534V323.287Z" fill="#5811B0"/>
<path opacity="0.1" d="M669.116 323.287H648.27V345.088H669.116V323.287Z" fill="#5811B0"/>
<path opacity="0.1" d="M589.534 377.052H568.688V398.853H589.534V377.052Z" fill="#5811B0"/>
<path opacity="0.1" d="M669.116 377.052H648.27V398.853H669.116V377.052Z" fill="#5811B0"/>
<path opacity="0.1" d="M589.534 430.825H568.688V452.625H589.534V430.825Z" fill="#5811B0"/>
<path opacity="0.1" d="M669.116 430.825H648.27V452.625H669.116V430.825Z" fill="#5811B0"/>
<path opacity="0.1" d="M589.534 484.598H568.688V506.398H589.534V484.598Z" fill="#5811B0"/>
<path opacity="0.1" d="M669.116 484.598H648.27V506.398H669.116V484.598Z" fill="#5811B0"/>
<path opacity="0.1" d="M568.688 552.421V538.363H589.527V550.42L568.688 552.421Z" fill="#5811B0"/>
<path opacity="0.1" d="M13.1941 228.712V241.183H84.5375V228.712H13.1941ZM20.3042 240.402H14.4842V229.478H20.3482L20.3042 240.402ZM27.4071 240.402H21.543V229.478H27.4071V240.402ZM34.4952 240.402H28.6312V229.478H34.4952V240.402ZM41.598 240.402H35.7413V229.478H41.6054L41.598 240.402ZM48.6935 240.402H42.8295V229.478H48.6935V240.402ZM55.7964 240.402H49.9323V229.478H55.7964V240.402ZM62.8992 240.402H57.0351V229.478H62.8992V240.402ZM69.9947 240.402H64.1306V229.478H69.9947V240.402ZM77.0902 240.402H71.2261V229.478H77.0902V240.402ZM84.1856 240.402H78.3216V229.478H84.1856V240.402Z" fill="#5811B0"/>
<path opacity="0.1" d="M13.1941 265V277.471H84.5375V265H13.1941ZM20.3042 276.682H14.4842V265.789H20.3482L20.3042 276.682ZM27.4071 276.682H21.543V265.789H27.4071V276.682ZM34.4952 276.682H28.6312V265.789H34.4952V276.682ZM41.598 276.682H35.7413V265.789H41.6054L41.598 276.682ZM48.6935 276.682H42.8295V265.789H48.6935V276.682ZM55.7964 276.682H49.9323V265.789H55.7964V276.682ZM62.8992 276.682H57.0351V265.789H62.8992V276.682ZM69.9947 276.682H64.1306V265.789H69.9947V276.682ZM77.0902 276.682H71.2261V265.789H77.0902V276.682ZM84.1856 276.682H78.3216V265.789H84.1856V276.682Z" fill="#5811B0"/>
<path opacity="0.1" d="M13.1941 301.303V313.798H84.5375V301.303H13.1941ZM20.3042 312.985H14.4842V302.085H20.3482L20.3042 312.985ZM27.4071 312.985H21.543V302.085H27.4071V312.985ZM34.4952 312.985H28.6312V302.085H34.4952V312.985ZM41.598 312.985H35.7413V302.085H41.6054L41.598 312.985ZM48.6935 312.985H42.8295V302.085H48.6935V312.985ZM55.7964 312.985H49.9323V302.085H55.7964V312.985ZM62.8992 312.985H57.0351V302.085H62.8992V312.985ZM69.9947 312.985H64.1306V302.085H69.9947V312.985ZM77.0902 312.985H71.2261V302.085H77.0902V312.985ZM84.1856 312.985H78.3216V302.085H84.1856V312.985Z" fill="#5811B0"/>
<path opacity="0.1" d="M13.1941 337.606V350.063H84.5375V337.606H13.1941ZM20.3042 349.288H14.4842V338.381H20.3482L20.3042 349.288ZM27.4071 349.288H21.543V338.381H27.4071V349.288ZM34.4952 349.288H28.6312V338.381H34.4952V349.288ZM41.598 349.288H35.7413V338.381H41.6054L41.598 349.288ZM48.6935 349.288H42.8295V338.381H48.6935V349.288ZM55.7964 349.288H49.9323V338.381H55.7964V349.288ZM62.8992 349.288H57.0351V338.381H62.8992V349.288ZM69.9947 349.288H64.1306V338.381H69.9947V349.288ZM77.0902 349.288H71.2261V338.381H77.0902V349.288ZM84.1856 349.288H78.3216V338.381H84.1856V349.288Z" fill="#5811B0"/>
<path opacity="0.1" d="M13.502 373.902C13.7878 375.075 14.1103 376.247 14.4475 377.405V374.684H20.3116V385.584H17.1743C17.2696 385.837 17.3649 386.113 17.4602 386.35H84.5375V373.902H13.502ZM27.4291 385.584H21.565V374.684H27.4291V385.584ZM34.5172 385.584H28.6532V374.684H34.5172V385.584ZM41.62 385.584H35.7413V374.684H41.6054L41.62 385.584ZM48.7155 385.584H42.8515V374.684H48.7155V385.584ZM55.8183 385.584H49.9543V374.684H55.8183V385.584ZM62.9212 385.584H57.0571V374.684H62.9212V385.584ZM70.0166 385.584H64.1526V374.684H70.0166V385.584ZM77.1121 385.584H71.2481V374.684H77.1121V385.584ZM84.2076 385.584H78.3436V374.684H84.2076V385.584Z" fill="#5811B0"/>
<path opacity="0.1" d="M30.0679 410.205C30.2511 410.45 30.427 410.726 30.6176 410.972H34.4952V416.207C34.913 416.728 35.3235 417.25 35.7487 417.74V410.941H41.6127V421.88H39.2378C39.4723 422.133 39.6996 422.401 39.9708 422.646H84.5595V410.205H30.0679ZM48.6935 421.88H42.8295V410.987H48.6935V421.88ZM55.7963 421.88H49.9323V410.987H55.7963V421.88ZM62.8992 421.88H57.0351V410.987H62.8992V421.88ZM69.9947 421.88H64.1306V410.987H69.9947V421.88ZM77.0901 421.88H71.2261V410.987H77.0901V421.88ZM84.1856 421.88H78.3216V410.987H84.1856V421.88Z" fill="#5811B0"/>
<path opacity="0.1" d="M69.2031 446.501C69.8702 446.899 70.5519 447.267 71.2409 447.666V447.283H77.1049V450.732L78.351 451.338V447.283H84.2151V453.913C84.3275 453.972 84.4454 454.018 84.5669 454.051V446.501H69.2031Z" fill="#5811B0"/>
<path opacity="0.1" d="M460.774 367.087C460.914 367.578 461.031 368.069 461.163 368.551C461.046 368.069 460.921 367.578 460.774 367.087ZM110.303 141.158V144.431H143.046V141.158H110.303ZM460.774 367.087C460.914 367.578 461.031 368.069 461.163 368.551C461.046 368.069 460.921 367.578 460.774 367.087ZM460.774 367.087C460.914 367.578 461.031 368.069 461.163 368.551C461.046 368.069 460.921 367.578 460.774 367.087Z" fill="#5811B0"/>
<path d="M338.355 291.031C338.355 291.031 335.467 290.61 335.467 286.21C335.467 281.81 333.4 273.593 333.4 273.593C333.4 273.554 331.611 259.281 329.141 257.013C326.671 254.744 323.497 241.421 323.497 241.421C323.497 241.421 322.955 234.193 321.848 232.637C320.741 231.081 319.246 227.271 317.039 221.836C314.833 216.401 305.634 212.638 305.634 212.638C305.634 212.638 289.002 202.55 284.289 199.262C283.86 198.991 283.46 198.675 283.094 198.319C282.273 197.192 278.696 197.169 278.696 197.169C278.322 194.701 277.963 191.864 277.846 189.297C277.846 189.021 277.845 188.745 277.809 188.469C283.064 185.22 287.023 180.098 288.958 174.042C289.046 173.751 289.119 173.445 289.2 173.153C289.515 173.045 289.804 172.869 290.051 172.636C290.297 172.404 290.494 172.121 290.629 171.804C291.054 170.815 291.062 169.658 291.589 168.738C292.205 167.649 293.378 167.067 294.301 166.247C296.632 164.177 297.233 160.689 297.124 157.516C297.05 154.948 296.654 152.357 296.808 149.804L296.852 149.161C296.896 148.777 296.948 148.394 297.014 148.026C297.373 146.125 298.157 144.331 298.597 142.446C299.037 140.56 299.081 138.437 298.054 136.812C296.552 134.428 293.422 133.952 290.673 133.707C287.558 133.431 284.772 133.791 282.779 131.086C281.846 129.671 280.796 128.345 279.641 127.123C279.231 126.724 275.243 124.179 275.243 124.01C271.351 122.125 266.94 121.772 262.819 123.014C260.752 123.643 258.802 124.67 256.706 125.183C252.183 126.302 246.979 125.091 243.138 127.797C240.997 129.33 239.715 131.768 238.512 134.144C237.535 136.101 236.543 138.056 235.536 140.008C233.917 143.22 232.267 146.485 231.586 150.042C231.442 150.816 231.354 151.6 231.322 152.388V152.426C231.322 152.71 231.322 152.993 231.322 153.277V153.637C231.322 153.905 231.322 154.166 231.366 154.404C231.41 154.641 231.402 154.718 231.424 154.879C231.446 155.04 231.483 155.4 231.527 155.645C231.571 155.891 231.659 156.32 231.747 156.657C231.783 156.803 231.835 156.941 231.879 157.079C231.952 157.34 232.04 157.592 232.135 157.845C232.187 157.976 232.238 158.114 232.297 158.244C232.407 158.512 232.538 158.773 232.67 159.011C232.729 159.118 232.773 159.218 232.832 159.317C233.036 159.674 233.261 160.017 233.506 160.344C235.075 162.391 237.384 163.694 239.092 165.61C239.092 165.687 239.092 165.764 239.092 165.833C239.092 166.047 239.092 166.254 239.092 166.469C239.182 170.743 240.27 174.929 242.26 178.663C244.251 182.397 247.083 185.566 250.512 187.894C250.512 188.185 250.548 188.484 250.563 188.775C250.706 191.051 250.679 193.334 250.482 195.605C250.184 195.237 249.81 194.945 249.389 194.748C248.968 194.552 248.51 194.457 248.049 194.471C247.734 194.455 247.418 194.483 247.111 194.555L247.045 194.501V194.57C245.432 194.984 243.446 196.74 241.547 201.73C241.547 201.73 235.771 208.537 231.373 208.253C226.975 207.969 215.841 215.336 215.841 215.336C215.841 215.336 204.977 222.71 202.647 230.222C201.344 234.482 199.782 238.65 197.97 242.701L184.541 271.638L182.064 294.596C182.064 294.596 183.434 304.806 183.163 306.362C182.892 307.918 188.8 321.954 188.8 321.954C188.8 321.954 208.32 357.82 216.295 359.66L216.867 359.238C217.208 359.424 217.57 359.566 217.944 359.66L219.586 358.448C219.685 359.798 219.643 361.155 219.462 362.496C218.362 366.037 219.872 389.148 221.793 393.679C223.713 398.209 223.031 457.608 223.031 457.608L222.76 462.851C222.76 462.851 222.76 463.02 222.826 463.311L222.76 464.553L222.958 464.66C223.164 466.323 223.097 468.011 222.76 469.65C222.071 471.95 221.793 478.45 221.793 478.45C221.793 478.45 216.302 515.152 218.905 522.526C221.507 529.9 223.72 537.979 223.72 537.979C223.72 537.979 226.469 547.178 223.852 548.749C221.236 550.321 213.796 552.958 215.327 556.79C216.72 560.332 222.005 569.821 222.789 571.209L222.724 571.937L221.646 584.148C221.82 585.76 222.239 587.333 222.885 588.809C224.065 591.468 226.359 594.228 230.721 593.929C231.454 593.875 232.304 593.783 233.125 593.668C241.107 592.549 250.937 588.824 250.937 588.824C250.427 588.485 249.959 588.081 249.544 587.62C249.152 587.223 248.841 586.746 248.63 586.219C248.42 585.692 248.314 585.125 248.32 584.554C248.437 582.331 244.457 571.738 243.468 569.131C243.314 568.756 243.233 568.541 243.233 568.541C243.233 568.541 252.308 558.622 250.798 549.83C250.798 549.83 240.755 543.698 244.061 540.333C247.367 536.968 253.275 527.302 253.275 527.302C253.275 527.302 253.546 491.159 253.275 485.763C252.992 482.017 253.162 478.249 253.781 474.548C253.891 473.989 254.023 473.445 254.162 472.908C258.734 473.622 263.349 473.988 267.972 474.004C269.658 474.004 271.373 474.004 273.103 473.897C273.103 474.408 273.125 474.96 273.169 475.553C273.55 484.506 274.261 500.204 274.84 506.038C275.661 514.401 280.198 536.937 280.198 536.937C280.198 536.937 271.542 542.747 281.708 557.066C281.708 557.066 281.708 562.256 281.034 563.007C280.314 565.463 279.734 567.961 279.297 570.488C278.872 573.186 278.696 575.915 279.385 577.333C281.034 580.722 290.93 580.446 290.93 580.446L291.172 580.4C293.04 580.198 294.928 580.386 296.726 580.953C298.524 581.52 300.196 582.455 301.646 583.703C305.407 586.862 319.678 585.474 327.404 584.47C330.431 584.071 332.454 583.703 332.454 583.703C332.552 583.345 332.587 582.971 332.557 582.6C332.476 580.614 330.988 576.26 320.902 572.374C320.902 572.374 311.417 565.705 311.549 559.895H311.351H310.252C311.051 559.849 311.564 559.895 311.564 559.895C311.564 559.895 307.847 545.714 309.365 544.564C310.882 543.414 306.337 527.7 306.337 527.7C306.337 527.7 303.735 501.331 303.596 499.484C303.602 497.899 303.832 496.323 304.278 494.808L303.596 480.351C303.596 480.351 303.464 475.545 303.596 473.981C303.574 472.624 303.468 471.269 303.281 469.926C303.215 469.39 303.149 468.83 303.076 468.278C306.631 467.335 308.94 466.461 308.94 466.461L308.529 416.138C311.549 410.006 312.106 396.553 312.092 387.01C312.092 380.877 311.828 376.339 311.828 376.339L315.954 369.295C315.954 369.295 316.907 360.863 315.397 359.016C314.73 358.18 315.031 357.314 315.581 356.601C315.866 356.364 316.167 356.149 316.482 355.957C316.482 355.957 316.438 355.888 316.387 355.789C316.675 355.537 316.981 355.309 317.303 355.106C317.303 355.106 315.837 352.73 317.149 351.726C318.381 352.6 319.48 353.259 320.316 353.796C320.257 354.355 320.199 354.677 320.199 354.677L320.55 353.911C321.357 354.386 321.848 354.677 321.848 354.677C321.848 354.677 328.313 341.209 328.174 339.224C328.034 337.238 332.572 328.875 332.572 328.875C332.572 328.875 333.121 324.483 335.599 322.643C338.077 320.804 337.519 307.474 337.519 307.474C337.519 307.474 338.208 300.529 339.858 297.693C341.507 294.856 338.355 291.031 338.355 291.031ZM214.653 285.121L214.778 288.333C214.045 287.099 213.517 286.21 213.517 286.21L214.653 285.121Z" fill="url(#paint0_linear_1239_393)"/>
<path d="M322.2 348.859L320.616 355.911C320.616 355.911 307.935 349.143 305.648 340.542C303.361 331.942 309.475 328.676 309.475 328.676L321.291 333.912L322.2 348.859Z" fill="white"/>
<path opacity="0.1" d="M322.2 348.859L320.616 355.911C320.616 355.911 307.935 349.143 305.648 340.542C303.361 331.942 309.475 328.676 309.475 328.676L321.291 333.912L322.2 348.859Z" fill="black"/>
<path d="M251.032 588.87C251.032 588.87 239.304 593.377 231.241 593.944C226.96 594.243 224.71 591.499 223.552 588.855C222.919 587.384 222.511 585.82 222.343 584.217L223.391 572.067L223.948 565.598L241.078 560.945L243.504 568.702L243.732 569.292C244.707 571.883 248.613 582.423 248.496 584.623C248.491 585.187 248.595 585.745 248.802 586.265C249.008 586.786 249.313 587.257 249.698 587.651C250.092 588.115 250.54 588.525 251.032 588.87Z" fill="white"/>
<path d="M331.142 582.692C331.172 583.06 331.137 583.432 331.04 583.788C331.04 583.788 305.956 588.165 300.825 583.788C299.379 582.509 297.692 581.561 295.875 581.004C294.057 580.447 292.148 580.293 290.27 580.553C290.27 580.553 280.565 580.829 278.945 577.487C278.271 576.084 278.447 573.363 278.864 570.68C279.291 568.166 279.858 565.681 280.565 563.237L280.953 562.915L283.262 560.976L310.296 560.14H310.501C310.369 565.92 319.678 572.55 319.678 572.55C329.566 576.383 331.025 580.714 331.142 582.692Z" fill="white"/>
<path opacity="0.1" d="M331.142 582.692C331.168 583.061 331.131 583.432 331.032 583.788C331.032 583.788 305.956 588.165 300.825 583.788C299.379 582.51 297.694 581.562 295.878 581.005C294.062 580.448 292.154 580.294 290.277 580.553C290.277 580.553 280.565 580.829 278.952 577.487C278.278 576.076 278.447 573.363 278.864 570.68C282.603 571.071 288.503 572.044 290.82 574.367C294.324 577.901 300.261 581.427 303.904 581.703C306.755 581.894 323.812 582.462 331.142 582.692Z" fill="black"/>
<path opacity="0.1" d="M251.032 588.87C251.032 588.87 239.304 593.377 231.241 593.944C226.96 594.243 224.71 591.499 223.559 588.847C226.543 589.897 230.684 591.001 232.861 589.989C235.441 588.793 244.589 588.019 249.72 587.689C250.111 588.136 250.551 588.533 251.032 588.87Z" fill="black"/>
<path d="M268.434 225.646C258.758 221.714 246.312 208.721 249.42 202.65C250.11 201.118 250.52 199.464 250.629 197.775C250.829 195.481 250.859 193.174 250.717 190.876C250.499 187.111 250.066 183.364 249.42 179.654C249.42 179.654 279.627 180.366 277.868 185.019C277.355 186.384 277.274 188.752 277.413 191.405C277.552 194.057 277.919 197.054 278.3 199.591C278.828 203.071 279.356 205.724 279.356 205.724C279.356 205.724 277.508 208.429 276.424 208.575C275.339 208.721 282.317 231.249 268.434 225.646Z" fill="#CF6F80"/>
<path opacity="0.1" d="M243.71 569.292L243.482 569.553C234.452 558.132 223.53 572.366 223.53 572.366L223.369 572.067L223.926 565.598L241.056 560.945L243.482 568.702L243.71 569.292Z" fill="black"/>
<path opacity="0.1" d="M310.508 560.945C310.508 560.945 303.911 560.799 300.393 564.049C296.874 567.299 279.869 564.755 280.602 564.049C280.819 563.7 280.95 563.3 280.983 562.884L283.292 560.945L310.325 560.109C310.428 560.623 310.508 560.945 310.508 560.945Z" fill="black"/>
<path d="M254.946 471.252C254.455 472.523 254.082 473.839 253.832 475.185C253.221 478.868 253.051 482.618 253.326 486.345C253.598 491.711 253.326 527.67 253.326 527.67C253.326 527.67 247.528 537.259 244.296 540.639C241.063 544.02 250.893 550.091 250.893 550.091C252.359 558.829 243.475 568.702 243.475 568.702C234.444 557.281 223.522 571.523 223.522 571.523C223.522 571.523 217.585 560.792 216.104 556.959C214.624 553.126 221.903 550.474 224.461 548.918C227.019 547.362 224.336 538.186 224.336 538.186C224.336 538.186 222.174 530.145 219.608 522.81C217.043 515.474 222.438 478.956 222.438 478.956C222.438 478.956 222.716 472.471 223.383 470.21C223.72 468.578 223.787 466.898 223.581 465.243C223.537 464.683 223.486 464.215 223.449 463.901C223.413 463.587 223.383 463.441 223.383 463.441L223.486 463.257L227.151 456.113C227.151 456.113 256.706 466.753 254.946 471.252Z" fill="#5811B0"/>
<path d="M310.508 560.102C310.508 560.102 303.911 559.956 300.393 563.168C296.874 566.38 279.869 563.873 280.602 563.168C281.335 562.463 281.276 557.243 281.276 557.243C271.3 543 279.81 537.22 279.81 537.22C279.81 537.22 275.353 514.799 274.547 506.482C273.983 500.672 273.286 485.058 272.913 476.143C272.751 472.31 272.656 469.673 272.656 469.673L280.807 467.956L281.855 467.734L301.514 463.61C301.514 463.61 302.057 467.443 302.423 470.578C302.606 471.916 302.709 473.265 302.731 474.617C302.599 476.15 302.731 480.949 302.731 480.949L303.398 495.337C302.962 496.846 302.738 498.413 302.731 499.99C302.863 501.822 305.421 528.053 305.421 528.053C305.421 528.053 309.871 543.705 308.353 544.832C306.836 545.959 310.508 560.102 310.508 560.102Z" fill="#5811B0"/>
<path opacity="0.1" d="M277.868 185.019C277.355 186.384 277.274 188.752 277.413 191.405C273.367 193.953 268.716 195.255 263.993 195.163C259.271 195.071 254.669 193.587 250.717 190.883C250.499 187.116 250.066 183.366 249.42 179.654C249.42 179.654 279.627 180.351 277.868 185.019Z" fill="black"/>
<path d="M289.544 168.079C289.55 170.841 289.134 173.586 288.313 176.212C286.476 182.094 282.711 187.108 277.681 190.367C272.651 193.627 266.682 194.922 260.828 194.024C254.973 193.126 249.611 190.092 245.688 185.459C241.766 180.827 239.536 174.893 239.392 168.707C239.392 168.493 239.392 168.293 239.392 168.079C239.335 164.597 239.942 161.138 241.177 157.904C242.411 154.67 244.25 151.725 246.584 149.241C248.919 146.758 251.703 144.786 254.774 143.439C257.845 142.093 261.142 141.399 264.472 141.399C267.802 141.399 271.099 142.093 274.17 143.439C277.241 144.786 280.025 146.758 282.359 149.241C284.694 151.725 286.532 154.67 287.767 157.904C289.002 161.138 289.609 164.597 289.552 168.079H289.544Z" fill="#CF6F80"/>
<path opacity="0.1" d="M268.434 225.646C258.758 221.714 246.312 208.721 249.42 202.65C250.11 201.118 250.52 199.464 250.629 197.775L263.875 209.158L272.07 216.187L278.3 199.599C278.828 203.079 279.356 205.731 279.356 205.731C279.356 205.731 277.508 208.437 276.424 208.583C275.339 208.728 282.317 231.249 268.434 225.646Z" fill="black"/>
<path d="M302.687 275.954L291.626 470.271L277.201 471.26L239.847 358.586L245.975 224.818L247.265 196.556L263.875 210.821L272.077 217.85L278.491 200.779L290.417 211.649L302.687 275.954Z" fill="#5811B0"/>
<path opacity="0.1" d="M254.946 471.252C254.455 472.523 254.082 473.839 253.832 475.185C243.336 473.49 233.141 470.159 223.589 465.304L223.391 465.197L223.457 463.962L223.493 463.319L227.158 456.174C227.158 456.174 256.706 466.753 254.946 471.252Z" fill="black"/>
<path opacity="0.1" d="M280.975 475.215C278.292 475.693 275.586 476.015 272.868 476.181C272.707 472.348 272.612 469.712 272.612 469.712L280.763 467.995L280.975 475.215Z" fill="black"/>
<path opacity="0.1" d="M302.379 470.616C297.167 472.034 289.119 473.629 281.914 472.632L281.811 467.772L301.47 463.648C301.47 463.648 302.013 467.443 302.379 470.616Z" fill="black"/>
<path opacity="0.1" d="M281.782 473.521C251.729 478.887 224.204 463.503 224.204 463.503L224.468 458.29C224.468 458.29 225.15 399.198 223.259 394.667C221.368 390.137 219.894 367.164 220.964 363.638C222.035 360.112 217.058 307.236 217.058 307.236L216.251 285.773L186.74 273.271L199.935 244.51C201.717 240.478 203.249 236.33 204.523 232.092C206.817 224.626 217.468 217.291 217.468 217.291C217.468 217.291 228.39 209.962 232.707 210.238C237.025 210.514 242.683 203.754 242.683 203.754C246.862 192.616 250.644 197.66 250.644 197.66C250.644 198.188 250.644 197.66 250.439 199.308C248.973 211.534 274.144 250.167 274.503 250.85L276.9 311.912L279.326 389.187L281.782 473.521Z" fill="black"/>
<path d="M280.976 473.521C250.922 478.887 223.391 463.503 223.391 463.503L223.662 458.29C223.662 458.29 224.344 399.198 222.445 394.667C220.547 390.137 219.081 367.164 220.158 363.638C221.236 360.112 216.251 307.236 216.251 307.236L215.438 285.773L185.912 273.225L199.106 244.464C200.884 240.43 202.417 236.283 203.695 232.046C205.982 224.58 216.64 217.245 216.64 217.245C216.64 217.245 227.561 209.916 231.872 210.192C236.182 210.468 241.848 203.707 241.848 203.707C246.033 192.57 250.644 197.614 250.644 197.614C250.644 198.142 250.204 198.38 250.439 199.262C253.664 211.12 273.338 250.121 273.697 250.804L276.123 311.866L278.549 389.141L280.976 473.521Z" fill="white"/>
<path opacity="0.1" d="M272.876 252.544C269.643 251.133 252.52 230.69 252.52 230.69V226.037C251.897 224.504 248.196 225.439 245.19 226.512L246.48 198.25L247.946 199.522C251.157 211.373 272.502 251.861 272.876 252.544Z" fill="black"/>
<path d="M273.69 250.85C270.45 249.439 253.327 228.996 253.327 228.996V224.343C252.704 222.81 249.002 223.745 245.997 224.818L247.294 196.556L248.76 197.828C251.978 209.679 273.33 250.175 273.69 250.85Z" fill="white"/>
<path opacity="0.1" d="M224.204 352.807C224.607 352.807 245.102 350.553 245.102 350.553C245.102 350.553 257.512 376.071 256.698 382.28C255.885 388.489 254.411 393.985 249.42 393.012C244.428 392.038 222.555 393.778 222.555 393.778L224.204 352.807Z" fill="black"/>
<path d="M223.391 351.113C223.794 351.113 244.289 348.859 244.289 348.859C244.289 348.859 256.691 374.385 255.885 380.586C255.079 386.787 253.591 392.291 248.606 391.318C243.622 390.344 221.741 392.084 221.741 392.084L223.391 351.113Z" fill="white"/>
<path d="M238.835 339.132C238.835 339.132 257.644 349.702 258.047 352.929C258.45 356.157 248.474 351.519 246.319 350.959C244.901 350.602 243.457 350.366 242.002 350.254L227.627 350.66L238.835 339.132Z" fill="#CF6F80"/>
<path opacity="0.1" d="M267.628 253.862C268.721 253.862 269.607 252.935 269.607 251.792C269.607 250.649 268.721 249.723 267.628 249.723C266.535 249.723 265.648 250.649 265.648 251.792C265.648 252.935 266.535 253.862 267.628 253.862Z" fill="black"/>
<path d="M267.628 253.019C268.721 253.019 269.607 252.092 269.607 250.949C269.607 249.806 268.721 248.88 267.628 248.88C266.535 248.88 265.648 249.806 265.648 250.949C265.648 252.092 266.535 253.019 267.628 253.019Z" fill="#3F3D56"/>
<path opacity="0.1" d="M271.271 343.455C272.364 343.455 273.25 342.528 273.25 341.385C273.25 340.242 272.364 339.316 271.271 339.316C270.178 339.316 269.292 340.242 269.292 341.385C269.292 342.528 270.178 343.455 271.271 343.455Z" fill="black"/>
<path d="M271.271 342.604C272.364 342.604 273.25 341.678 273.25 340.535C273.25 339.391 272.364 338.465 271.271 338.465C270.178 338.465 269.292 339.391 269.292 340.535C269.292 341.678 270.178 342.604 271.271 342.604Z" fill="#3F3D56"/>
<path opacity="0.1" d="M269.599 298.659C270.692 298.659 271.578 297.732 271.578 296.589C271.578 295.446 270.692 294.519 269.599 294.519C268.506 294.519 267.62 295.446 267.62 296.589C267.62 297.732 268.506 298.659 269.599 298.659Z" fill="black"/>
<path d="M269.599 297.815C270.692 297.815 271.578 296.889 271.578 295.746C271.578 294.603 270.692 293.676 269.599 293.676C268.506 293.676 267.62 294.603 267.62 295.746C267.62 296.889 268.506 297.815 269.599 297.815Z" fill="#3F3D56"/>
<path d="M315.222 349.825C315.222 349.825 316.57 351.941 315.222 352.929C313.873 353.918 315.353 356.31 315.353 356.31C315.353 356.31 311.989 358.372 313.47 360.227C314.95 362.082 314.012 370.46 314.012 370.46L309.966 377.466C309.966 377.466 310.208 381.981 310.222 388.083C310.222 397.603 309.687 410.987 306.726 417.089L307.136 467.151C307.136 467.151 292.967 472.563 281.107 470.915L279.348 390.582C279.348 390.582 281.914 345.026 282.859 336.288C283.413 331.751 283.638 327.177 283.534 322.605C283.534 322.605 283.131 308.93 281.774 302.583C281.774 302.583 280.309 275.088 280.162 267.476C280.096 263.835 280.279 253.211 280.484 243.108C280.712 232.062 280.968 221.645 280.968 221.645L278.293 199.507C278.293 199.507 280.968 199.223 281.774 200.35C282.136 200.703 282.528 201.019 282.947 201.293C287.565 204.558 303.882 214.6 303.882 214.6C303.882 214.6 312.913 218.356 315.075 223.737C317.237 229.118 318.74 232.936 319.788 234.469C320.836 236.002 321.408 243.207 321.408 243.207C321.408 243.207 324.516 256.468 326.942 258.714C329.369 260.96 331.142 275.249 331.142 275.249L309.702 292.879C309.702 292.879 307.818 322.207 307.415 323.341C307.012 324.476 315.222 349.825 315.222 349.825Z" fill="white"/>
<path d="M316.035 349.825C316.035 349.825 317.377 351.941 316.035 352.929C314.694 353.918 316.16 356.31 316.16 356.31C316.16 356.31 312.817 358.395 314.283 360.25C315.749 362.105 314.826 370.483 314.826 370.483L310.78 377.489C310.78 377.489 311.021 382.004 311.043 388.106C311.043 397.626 310.508 411.01 307.547 417.112L307.95 467.174C307.95 467.174 293.759 472.586 281.914 470.938L280.162 390.605C280.162 390.605 282.727 345.049 283.673 336.311C284.227 331.774 284.45 327.2 284.34 322.628C284.34 322.628 283.937 308.953 282.588 302.606C282.588 302.606 281.122 275.111 280.968 267.499C280.902 263.858 281.093 253.234 281.291 243.131C281.518 232.085 281.775 221.668 281.775 221.668L278.241 199.231C278.241 199.231 281.775 199.231 282.588 200.373C282.946 200.73 283.339 201.046 283.761 201.316C288.379 204.581 304.703 214.623 304.703 214.623C304.703 214.623 313.726 218.379 315.889 223.76C318.051 229.141 319.554 232.959 320.609 234.492C321.665 236.025 322.222 243.23 322.222 243.23C322.222 243.23 325.33 256.491 327.756 258.737C330.182 260.983 331.934 275.241 331.934 275.241L310.494 292.871C310.494 292.871 308.61 322.199 308.199 323.333C307.789 324.468 316.035 349.825 316.035 349.825Z" fill="white"/>
<path opacity="0.1" d="M290.358 228.175L292.293 234.078L282.104 244.809C282.332 233.771 282.588 223.346 282.588 223.346L279.055 200.91C279.055 200.91 282.588 200.91 283.402 202.052C283.759 202.408 284.152 202.721 284.575 202.987L293.239 229.126L290.358 228.175Z" fill="black"/>
<path d="M289.544 226.481L291.487 232.384L281.298 243.115C281.525 232.069 281.782 221.652 281.782 221.652L278.241 199.216C278.241 199.216 281.782 199.216 282.588 200.358C282.948 200.713 283.341 201.028 283.761 201.301L292.432 227.432L289.544 226.481Z" fill="white"/>
<path opacity="0.1" d="M289.544 168.079C289.55 170.841 289.134 173.586 288.313 176.212C288.174 176.234 288.033 176.228 287.897 176.192C287.761 176.157 287.633 176.093 287.521 176.005C287.331 169.106 284.083 162.629 280.089 157.117C278.967 155.453 277.607 153.98 276.057 152.748C274.49 151.517 272.54 150.94 270.589 151.131C268.39 151.445 266.447 153.009 264.226 153.208C261.294 153.461 258.67 151.338 255.76 151.23C254.577 151.242 253.41 151.517 252.337 152.038C251.264 152.559 250.309 153.313 249.537 154.25C248.008 156.142 246.872 158.345 246.202 160.72C245.049 164.321 244.422 168.084 244.34 171.881C244.303 174.027 244.105 176.718 242.2 177.499C242.343 175.921 242.171 174.329 241.696 172.823C241.22 171.317 240.451 169.932 239.436 168.753L239.392 168.707C239.392 168.493 239.392 168.293 239.392 168.079C239.335 164.597 239.942 161.138 241.177 157.904C242.411 154.67 244.25 151.725 246.584 149.241C248.919 146.758 251.703 144.786 254.774 143.439C257.845 142.093 261.142 141.399 264.472 141.399C267.802 141.399 271.099 142.093 274.17 143.439C277.241 144.786 280.025 146.758 282.359 149.241C284.694 151.725 286.532 154.67 287.767 157.904C289.002 161.138 289.609 164.597 289.552 168.079H289.544Z" fill="black"/>
<path d="M274.855 126.433C271.046 124.559 266.714 124.205 262.672 125.436C260.642 126.065 258.729 127.084 256.669 127.598C252.271 128.709 247.14 127.506 243.365 130.197C241.269 131.73 240.008 134.152 238.835 136.505L235.903 142.346C234.305 145.543 232.693 148.793 232.025 152.311C231.358 155.83 231.762 159.77 233.895 162.598C235.449 164.66 237.743 165.956 239.429 167.895C240.439 169.074 241.205 170.46 241.679 171.963C242.153 173.467 242.326 175.057 242.185 176.633C244.098 175.867 244.281 173.169 244.325 171.022C244.407 167.225 245.035 163.463 246.187 159.862C246.856 157.486 247.992 155.282 249.522 153.392C250.295 152.456 251.25 151.702 252.323 151.181C253.396 150.66 254.563 150.385 255.746 150.372C258.678 150.479 261.309 152.595 264.212 152.342C266.411 152.15 268.361 150.579 270.574 150.272C272.526 150.079 274.476 150.656 276.042 151.89C277.592 153.119 278.95 154.593 280.067 156.259C284.069 161.77 287.316 168.232 287.507 175.146C288.335 175.783 289.53 174.955 289.94 173.974C290.351 172.992 290.365 171.843 290.886 170.907C291.487 169.827 292.638 169.252 293.539 168.439C295.826 166.377 296.398 162.905 296.31 159.754C296.222 156.604 295.636 153.407 296.207 150.31C296.552 148.409 297.329 146.631 297.754 144.753C298.179 142.875 298.23 140.767 297.226 139.15C295.76 136.773 292.674 136.306 289.984 136.084C286.928 135.808 284.193 136.16 282.244 133.47C281.328 132.066 280.298 130.747 279.165 129.53C278.777 129.131 274.855 126.601 274.855 126.433Z" fill="#512E4E"/>
<path opacity="0.1" d="M195.185 288.08L187.525 273.271L185.098 296.121C185.098 296.121 186.447 306.27 186.176 307.826C185.905 309.382 191.703 323.333 191.703 323.333C191.703 323.333 210.856 359.008 218.677 360.848L245.102 341.102L238.095 331.796C238.095 331.796 235.668 330.807 235.06 331.796C235.06 331.796 222.049 308.386 220.7 306.692C219.352 304.998 219.616 301.617 219.616 301.617C219.616 301.617 217.593 299.364 218.267 297.248C218.941 295.132 214.36 287.797 214.36 287.797L218.538 283.711L195.185 288.08Z" fill="black"/>
<path d="M187.928 271.584L185.905 273.271L183.479 296.121C183.479 296.121 184.827 306.27 184.556 307.826C184.285 309.382 190.09 323.333 190.09 323.333C190.09 323.333 209.236 359.008 217.057 360.848L243.49 341.102L236.475 331.796C236.475 331.796 234.049 330.807 233.44 331.796C233.44 331.796 220.429 308.386 219.081 306.692C217.732 304.998 218.003 301.617 218.003 301.617C218.003 301.617 215.98 299.364 216.654 297.248C217.329 295.133 212.74 287.797 212.74 287.797L216.918 283.711L187.928 271.584Z" fill="white"/>
<path opacity="0.1" d="M313.47 361.101C314.936 362.963 314.012 371.326 314.012 371.326L309.966 378.333C309.966 378.333 310.208 382.855 310.222 388.949L303.42 391.172C302.805 391.373 302.154 391.417 301.519 391.301C300.885 391.185 300.286 390.911 299.773 390.504C299.26 390.097 298.848 389.567 298.571 388.959C298.294 388.351 298.159 387.683 298.179 387.01L299.352 347.449L315.222 353.796C313.873 354.777 315.353 357.184 315.353 357.184C315.353 357.184 311.989 359.238 313.47 361.101Z" fill="black"/>
<path d="M314.283 360.25C315.749 362.113 314.826 370.483 314.826 370.483L310.78 377.489C310.78 377.489 311.021 382.004 311.043 388.106L304.116 390.367C303.514 390.563 302.876 390.605 302.255 390.491C301.635 390.377 301.049 390.109 300.547 389.71C300.045 389.311 299.641 388.792 299.37 388.197C299.098 387.602 298.966 386.948 298.985 386.289L300.166 346.605L316.042 352.952C314.686 353.934 316.167 356.333 316.167 356.333C316.167 356.333 312.817 358.395 314.283 360.25Z" fill="white"/>
<path d="M319.539 341.393C319.539 341.393 318.461 348.591 315.764 349.012C313.066 349.434 311.857 360.656 309.167 360.258C306.477 359.859 308.258 349.825 308.353 347.878C308.449 345.931 305.421 337.867 307.686 336.035C309.951 334.203 317.12 336.035 317.12 336.035L319.539 341.393Z" fill="#CF6F80"/>
<path opacity="0.1" d="M325.278 285.965L330.365 275.233C330.365 275.233 332.388 283.412 332.388 287.781C332.388 292.151 335.218 292.58 335.218 292.58C335.218 292.58 338.318 296.413 336.684 299.203C335.049 301.993 334.39 308.938 334.39 308.938C334.39 308.938 334.925 322.191 332.498 324.023C330.072 325.855 329.566 330.232 329.566 330.232C329.566 330.232 325.11 338.549 325.249 340.527C325.388 342.505 319.048 355.896 319.048 355.896C319.048 355.896 322.148 339.254 304.08 332.064C304.08 332.064 303.941 326.415 305.289 324.866C306.638 323.318 308.742 322.613 307.422 314.787C306.103 306.96 307.041 297.608 307.041 295.73C307.041 293.852 311.087 282.14 311.087 282.14L325.278 285.965Z" fill="black"/>
<path d="M327.477 273.7L331.919 275.233C331.919 275.233 333.95 283.412 333.95 287.781C333.95 292.151 336.779 292.58 336.779 292.58C336.779 292.58 339.88 296.413 338.245 299.203C336.611 301.993 335.958 308.938 335.958 308.938C335.958 308.938 336.493 322.191 334.067 324.023C331.641 325.855 331.099 330.232 331.099 330.232C331.099 330.232 326.649 338.549 326.788 340.527C326.928 342.505 320.58 355.896 320.58 355.896C320.58 355.896 323.688 339.254 305.612 332.064C305.612 332.064 305.48 326.415 306.829 324.866C308.177 323.318 310.281 322.613 308.962 314.787C307.642 306.96 308.581 297.608 308.581 295.73C308.581 293.852 312.627 282.14 312.627 282.14L327.477 273.7Z" fill="white"/>
<path opacity="0.1" d="M229.365 551.854C229.365 551.854 236.446 547.201 241.093 550.581C245.74 553.962 229.365 551.854 229.365 551.854Z" fill="black"/>
<path opacity="0.1" d="M284.384 537.466C284.384 537.466 290.651 536.623 295.914 542.548C301.177 548.473 284.384 537.466 284.384 537.466Z" fill="black"/>
<g opacity="0.1">
<path d="M293.554 166.76C292.652 167.573 291.494 168.156 290.893 169.236C290.38 170.164 290.365 171.306 289.955 172.303C289.544 173.299 288.349 174.112 287.521 173.483C287.331 166.584 284.076 160.107 280.081 154.588C278.964 152.922 277.607 151.448 276.057 150.219C274.488 148.985 272.536 148.408 270.581 148.601C268.382 148.915 266.447 150.479 264.226 150.671C261.294 150.931 258.663 148.808 255.753 148.701C254.57 148.713 253.404 148.99 252.332 149.512C251.26 150.034 250.307 150.79 249.537 151.729C248.007 153.616 246.871 155.817 246.202 158.191C245.05 161.792 244.422 165.555 244.34 169.351C244.296 171.49 244.105 174.158 242.214 174.955C242.258 175.521 242.258 176.09 242.214 176.656C244.12 175.89 244.311 173.192 244.354 171.045C244.436 167.249 245.064 163.486 246.216 159.885C246.885 157.509 248.021 155.305 249.551 153.415C250.323 152.479 251.276 151.725 252.348 151.204C253.42 150.684 254.586 150.408 255.767 150.395C258.699 150.502 261.338 152.618 264.241 152.365C266.44 152.173 268.39 150.602 270.596 150.295C272.55 150.102 274.503 150.679 276.072 151.913C277.621 153.142 278.979 154.616 280.096 156.282C284.091 161.793 287.345 168.255 287.536 175.169C288.364 175.806 289.559 174.978 289.969 173.997C290.38 173.015 290.395 171.866 290.908 170.93C291.509 169.85 292.667 169.275 293.568 168.462C295.855 166.4 296.427 162.928 296.339 159.777C296.339 159.678 296.339 159.578 296.339 159.486C296.2 162.215 295.504 164.997 293.554 166.76Z" fill="black"/>
<path d="M239.443 166.216C237.758 164.277 235.456 162.981 233.909 160.927C232.607 159.109 231.863 156.919 231.776 154.649C231.546 157.486 232.303 160.315 233.909 162.613C235.456 164.675 237.758 165.971 239.443 167.91C241.062 169.807 242.034 172.212 242.207 174.748C242.319 173.204 242.132 171.653 241.657 170.187C241.182 168.721 240.429 167.371 239.443 166.216Z" fill="black"/>
<path d="M297.769 143.074C297.336 144.952 296.567 146.738 296.215 148.632C296.006 149.897 295.93 151.182 295.987 152.464C296.012 151.734 296.088 151.006 296.215 150.288C296.567 148.386 297.336 146.608 297.769 144.73C298.021 143.694 298.103 142.621 298.011 141.557C297.965 142.068 297.884 142.575 297.769 143.074Z" fill="black"/>
</g>
<path opacity="0.1" d="M97.2917 583.021C136.738 583.021 168.716 577.65 168.716 571.025C168.716 564.399 136.738 559.029 97.2917 559.029C57.8453 559.029 25.8677 564.399 25.8677 571.025C25.8677 577.65 57.8453 583.021 97.2917 583.021Z" fill="#5811B0"/>
<path d="M99.5935 341.217H94.9976V449.429H99.5935V341.217Z" fill="#535461"/>
<path d="M128.474 449.099L128.188 453.974L127.777 460.873L127.609 463.74L127.206 470.639L127.03 473.506L126.619 480.405L121.987 558.645C121.785 562.012 120.365 565.171 118.015 567.481C115.664 569.791 112.56 571.077 109.335 571.079H85.2485C82.0238 571.077 78.921 569.79 76.5718 567.481C74.2225 565.171 72.8037 562.011 72.6041 558.645L67.9935 480.351L67.583 473.452L67.4145 470.585L67.004 463.687L66.8354 460.82L66.4249 453.921L66.1317 449.046C66.0808 448.107 66.2137 447.168 66.5224 446.285C66.831 445.403 67.3089 444.595 67.9266 443.913C68.5443 443.23 69.289 442.687 70.1147 442.316C70.9405 441.945 71.83 441.754 72.7287 441.756H121.994C122.889 441.764 123.774 441.964 124.592 442.343C125.411 442.722 126.146 443.273 126.754 443.961C127.361 444.649 127.827 445.46 128.122 446.344C128.418 447.228 128.538 448.165 128.474 449.099Z" fill="#3F3D56"/>
<path d="M128.188 453.974L127.777 460.85H66.806L66.3955 453.974H128.188Z" fill="#9D9CB5"/>
<path d="M127.609 463.717L127.206 470.601H67.3851L66.9746 463.717H127.609Z" fill="#9D9CB5"/>
<path d="M127.03 473.475L126.627 480.351H67.9642L67.5537 473.475H127.03Z" fill="#9D9CB5"/>
<path d="M59.3807 381.774C86.1427 402.026 97.3137 433.7 97.3137 433.7C97.3137 433.7 65.0615 432.542 38.2921 412.29C11.5228 392.038 0.373779 360.373 0.373779 360.373C0.373779 360.373 32.6113 361.522 59.3807 381.774Z" fill="#5811B0"/>
<path d="M0.351807 360.373C0.351807 360.373 33.8355 379.804 44.574 395.894C55.3125 411.984 97.3137 433.7 97.3137 433.7" stroke="#535461" stroke-width="2" stroke-miterlimit="10"/>
<path d="M76.6576 340.979C91.2225 351.994 97.3137 369.234 97.3137 369.234C97.3137 369.234 79.7582 368.605 65.1861 357.59C50.614 346.575 44.5374 329.328 44.5374 329.328C44.5374 329.328 62.0855 329.956 76.6576 340.979Z" fill="#5811B0"/>
<path d="M44.5374 329.328C44.5374 329.328 62.7599 339.906 68.6019 348.66C74.444 357.414 97.3137 369.234 97.3137 369.234" stroke="#535461" stroke-width="2" stroke-miterlimit="10"/>
<path d="M118.461 368.36C101.726 387.592 98.186 412.727 98.186 412.727C98.186 412.727 121.781 406.671 138.501 387.431C155.221 368.191 158.776 343.064 158.776 343.064C158.776 343.064 135.195 349.127 118.461 368.36Z" fill="#5811B0"/>
<path d="M158.791 343.072C158.791 343.072 136.991 362.787 131.45 376.37C125.908 389.953 98.186 412.727 98.186 412.727" stroke="#535461" stroke-width="2" stroke-miterlimit="10"/>
<path d="M732.763 361.591C732.763 361.591 720.661 298.628 725.294 290.794C725.294 290.794 725.462 283.512 725.184 274.229C725.184 273.876 725.184 273.524 725.184 273.164C725.999 273.732 726.849 274.244 727.728 274.697C731.996 276.99 736.896 277.651 741.581 276.567L737.916 272.297C737.037 271.278 736.12 270.174 735.93 268.825C735.739 267.476 736.267 266.272 736.722 265.069C740.203 255.87 740.387 244.303 733.68 237.282C728.013 231.38 726.635 223.76 720.485 218.371C715.992 214.424 713.522 208.636 711.191 203.041C709.219 198.311 707.233 193.543 706.104 188.53C705.224 184.613 704.872 180.558 703.663 176.733C702.454 172.908 700.189 169.19 696.648 167.481C695.387 166.875 693.987 166.53 692.836 165.726C691.326 164.66 690.418 162.928 689.325 161.41C683.777 153.745 665.195 158.259 656.399 161.372C654.007 162.155 651.793 163.438 649.89 165.143L649.97 165.005C650.036 164.89 650.117 164.775 650.19 164.66C649.227 165.474 648.396 166.445 647.727 167.535C646.445 169.658 645.909 172.134 644.839 174.433C643.549 177.155 636.373 184.751 639.459 187.81C639.675 188.015 639.923 188.181 640.192 188.3C641.351 188.804 642.626 188.938 643.857 188.683L643.725 189.013C642.671 191.711 642.131 194.599 642.135 197.514C642.135 210.108 652.067 220.318 664.33 220.318C666.635 220.321 668.927 219.951 671.125 219.222C671.176 219.514 671.22 219.805 671.271 220.096C671.271 220.211 671.308 220.326 671.323 220.441L670.934 221.008C670.915 220.973 670.893 220.94 670.868 220.909L659.36 237.727C657.601 239.022 647.471 246.687 646.899 252.436C646.298 258.73 645.697 266.096 645.697 266.096L645.616 267.675C645.113 268.115 644.525 268.435 643.892 268.613C643.26 268.792 642.597 268.825 641.951 268.71C638.36 268.097 638.36 282.508 638.36 282.508C638.36 282.508 635.97 284.807 634.328 282.814C632.686 280.821 628.347 287.574 628.347 287.574L601.152 288.801L600.529 288.839L599.063 284.094C598.905 283.594 598.565 283.179 598.116 282.939C597.668 282.699 597.146 282.654 596.666 282.814C596.553 282.853 596.442 282.902 596.336 282.96L596.234 283.021L596.043 283.159L595.948 283.251C595.895 283.301 595.846 283.355 595.801 283.412L595.713 283.519L595.669 283.565C595.5 283.81 595.388 284.093 595.342 284.391C595.296 284.689 595.318 284.995 595.405 285.283L596.666 289.353C591.418 290.457 586.052 293.569 590.428 302.139L568.248 297.854L575.424 304.155L612.47 312.15C611.979 313.07 612.301 314.403 613.833 316.281C620.43 324.384 632.451 326.584 637.289 327.151C638.567 330.14 640.163 332.968 642.047 335.583L641.629 343.654C641.629 343.654 629.38 405.177 627.137 408.297C628.27 406.955 629.306 405.528 630.238 404.027C626.683 416.667 621.713 433.968 620.408 436.559C618.312 440.698 616.369 457.447 618.759 458.52C619.492 458.85 621.588 458.689 624.579 458.451V459.839L624.447 512.415C624.447 512.415 625.048 544.664 623.399 547.737C621.75 550.811 621.31 557.258 621.31 557.258C621.31 557.258 614.713 569.975 609.486 575.088C609.451 575.127 609.412 575.163 609.369 575.195L609.208 573.999C609.208 573.999 602.926 582.293 589.028 581.825C589.028 581.825 580.665 587.513 593.067 587.82C605.47 588.126 621.31 587.36 621.31 587.36C621.31 587.36 632.371 569.729 641.636 572.029V585.39H644.473V571.814C645.788 570.909 646.914 569.733 647.782 568.359C648.651 566.985 649.243 565.44 649.523 563.819C649.766 562.149 649.588 560.441 649.007 558.864C648.426 557.287 647.462 555.896 646.21 554.828C645.648 554.296 645.196 553.648 644.885 552.926C644.573 552.203 644.408 551.42 644.399 550.627L644.297 550.719C644.297 550.451 644.231 550.175 644.202 549.891C643.388 542.993 642.369 528.758 645.968 518.226C650.901 503.784 652.397 483.67 648.805 471.697C647.646 467.87 646.694 463.977 645.953 460.038C645.865 459.54 645.785 459.064 645.712 458.62C648.167 458.967 650.598 459.479 652.99 460.153C661.31 462.552 679.51 462.997 695.05 462.866C695.087 463.311 695.131 463.779 695.182 464.246C695.459 467.496 696.038 470.711 696.912 473.843C698.862 479.975 699.756 507.011 699.756 507.011C699.756 507.011 702.27 529.241 700.9 538.286C700.167 543.315 699.434 548.366 699.016 553.441V553.54C699.016 553.54 694.896 565.805 691.884 572.466C691.81 572.635 691.73 572.803 691.656 572.964C690.853 573.041 690.062 573.224 689.303 573.508C689.303 573.508 685.265 581.94 681.24 583.335C677.216 584.731 678.55 589.322 687.661 587.636C696.773 585.949 710.531 584.57 710.531 584.57L711.125 575.969L713.925 572.305L713.192 580.883L716.175 580.269L715.78 569.837L720.361 563.842C720.361 563.842 725.895 558.691 717.671 548.558V548.78C717.583 548.634 717.502 548.481 717.407 548.335V548.289C716.043 546.082 714.959 541.965 716.945 534.66C720.537 521.461 722.626 509.48 722.626 509.48C722.626 509.48 730.645 477.385 721.006 462.199H721.431C720.443 460.063 719.745 457.792 719.357 455.454C719.308 455.178 719.264 454.894 719.225 454.603C726.357 454.174 733.357 452.825 739.067 449.912C739.045 449.881 735.607 373.718 732.763 361.591ZM642.215 308.47V308.624L640.749 308.7L642.215 308.47ZM637.187 309.199C636.946 309.254 636.72 309.367 636.527 309.528C635.897 310.461 635.501 311.544 635.376 312.679L633.089 312.142C633.089 312.142 631.484 311.782 629.175 311.375L628.083 310.226C631.088 309.965 634.211 309.582 637.187 309.199Z" fill="url(#paint1_linear_1239_393)"/>
<path d="M712.855 569.944L711.982 580.806L714.907 580.193L714.467 568.411L712.855 569.944Z" fill="#1D2366"/>
<path d="M646.129 518.371C642.604 528.873 643.601 543.046 644.392 549.93C644.685 552.475 644.957 554.023 644.957 554.023C644.957 554.023 639.686 566.579 639.247 567.054C638.807 567.529 623.736 577.15 623.736 577.15L613.203 583.581C613.203 583.581 602.516 578.683 607.639 576.996C608.686 576.557 609.629 575.885 610.403 575.026C615.534 569.929 621.977 557.258 621.977 557.258C621.977 557.258 622.417 550.827 624.029 547.768C625.642 544.71 625.055 512.569 625.055 512.569L625.18 460.176V453.346L645.228 453.499C645.354 455.818 645.643 458.124 646.093 460.398C646.812 464.324 647.745 468.204 648.885 472.019C652.419 483.969 650.953 503.983 646.129 518.371Z" fill="#FFB0B1"/>
<path opacity="0.1" d="M644.957 554.023C644.957 554.023 639.686 566.579 639.247 567.054C638.807 567.529 623.736 577.149 623.736 577.149L613.203 583.581C613.203 583.581 602.516 578.683 607.639 576.996C608.686 576.557 609.629 575.885 610.403 575.026L610.857 578.376L614.368 578.223L644.422 549.945C644.685 552.475 644.957 554.023 644.957 554.023Z" fill="black"/>
<path d="M644.59 550.658L614.368 579.127L610.857 579.281L610.124 573.915C610.124 573.915 603.981 582.178 590.333 581.718C590.333 581.718 582.138 587.383 594.284 587.689C606.43 587.996 621.94 587.23 621.94 587.23C621.94 587.23 632.774 569.599 641.841 571.899V585.214H644.627V571.776C645.922 570.864 647.027 569.688 647.876 568.318C648.725 566.948 649.3 565.413 649.567 563.804C649.808 562.147 649.638 560.453 649.071 558.885C648.505 557.317 647.563 555.928 646.334 554.851C645.786 554.313 645.348 553.664 645.048 552.943C644.748 552.222 644.592 551.444 644.59 550.658Z" fill="#1D2366"/>
<path d="M715.64 534.745C713.69 542.027 714.753 546.128 716.087 548.328V548.374C717.798 551.09 718.988 554.128 719.591 557.319L719.708 558.009L705.957 578.974L698.495 582.04C698.495 582.04 686.496 577.755 688.688 576.529C689.237 576.23 690.095 574.635 691.077 572.435C694.009 565.805 698.055 553.571 698.055 553.571V553.471C698.481 548.42 699.155 543.384 699.903 538.37C701.244 529.348 698.781 507.203 698.781 507.203C698.781 507.203 697.901 480.274 695.996 474.15C695.135 471.036 694.563 467.843 694.288 464.614C693.892 460.781 693.804 457.623 693.804 457.623C693.804 457.623 701.706 446.125 716.19 458.543C717.348 459.534 718.367 460.69 719.217 461.977C729.223 476.863 721.167 509.656 721.167 509.656C721.167 509.656 719.151 521.583 715.64 534.745Z" fill="#FFB0B1"/>
<path opacity="0.1" d="M719.73 558.009L705.979 578.974L698.517 582.04C698.517 582.04 686.518 577.755 688.71 576.529C689.259 576.23 690.117 574.635 691.099 572.435C696.179 572.389 698.81 577.448 698.81 577.448L705.246 576.375C705.246 576.375 713.734 558.929 715.64 557.863C717.546 556.798 715.933 549.899 715.933 549.899V548.144C715.985 548.205 716.029 548.274 716.087 548.335V548.381C717.798 551.098 718.988 554.136 719.591 557.327L719.73 558.009Z" fill="black"/>
<path d="M699.25 577.901C699.25 577.901 695.585 570.864 688.563 573.462C688.563 573.462 684.612 581.894 680.661 583.259C676.71 584.623 678.03 589.222 686.958 587.544C695.886 585.865 709.344 584.478 709.344 584.478L709.93 575.9L719.005 563.812C719.005 563.812 724.414 558.684 716.366 548.588V550.344C716.366 550.344 717.979 557.242 716.073 558.308C714.167 559.373 705.708 576.828 705.708 576.828L699.25 577.901Z" fill="#1D2366"/>
<path opacity="0.1" d="M645.25 453.484C645.376 455.802 645.665 458.108 646.115 460.383C637.861 459.118 630.201 459.746 625.18 460.16V453.331L645.25 453.484Z" fill="black"/>
<path opacity="0.1" d="M720.031 463.886C720.031 463.886 708.303 464.484 694.317 464.606C693.921 460.774 693.833 457.616 693.833 457.616C693.833 457.616 701.735 446.117 716.219 458.535C717.377 459.526 718.397 460.682 719.247 461.969C719.474 462.623 719.736 463.263 720.031 463.886Z" fill="black"/>
<path d="M720.031 462.506C720.031 462.506 668.662 465.105 653.005 460.513C637.348 455.922 621.83 459.9 619.492 458.834C617.154 457.769 619.052 441.081 621.105 436.95C623.157 432.818 634.416 391.034 634.416 391.034L645.25 331.965L656.663 328.676L657.469 328.439L677.355 322.705L691.928 318.497C691.928 318.497 720.903 436.796 718.418 445.52C717.516 448.86 717.37 452.374 717.993 455.784C718.373 458.112 719.059 460.374 720.031 462.506Z" fill="#1D2366"/>
<path d="M607.485 291.568C607.485 291.568 597.223 303.066 604.993 309.474C612.763 315.883 617.872 310.088 617.872 310.088L607.485 291.568Z" fill="#C7DAF5"/>
<path opacity="0.1" d="M607.485 291.568C607.485 291.568 597.223 303.066 604.993 309.474C612.763 315.883 617.872 310.088 617.872 310.088L607.485 291.568Z" fill="black"/>
<path d="M690.395 215.972C690.395 215.972 689.193 217.168 687.383 218.931C684.803 221.453 680.984 225.14 677.597 228.229C672.906 232.499 669.036 235.634 670.421 232.959C671.806 230.283 671.543 225.623 670.854 221.261C670.802 220.97 670.758 220.679 670.707 220.395C670.136 217.192 669.38 214.028 668.442 210.921C668.442 210.921 676.021 200.68 680.214 196.64C681.775 195.107 682.867 194.478 682.933 195.544C683.007 196.977 684.033 200.143 685.308 203.501C685.345 203.608 685.382 203.708 685.426 203.815C686.276 206.114 687.236 208.475 688.079 210.514C689.369 213.642 690.395 215.972 690.395 215.972Z" fill="#FFB0B1"/>
<path opacity="0.1" d="M685.426 203.815C684.713 207.821 682.985 211.554 680.422 214.623C677.858 217.692 674.554 219.984 670.854 221.261C670.271 217.762 669.465 214.308 668.442 210.921C668.442 210.921 682.714 191.642 682.933 195.544C682.985 197.023 684.099 200.304 685.426 203.815Z" fill="black"/>
<path opacity="0.1" d="M669.432 226.412L671.279 223.691C671.279 223.691 672.503 231.495 677.003 228.053C681.504 224.611 681.724 253.954 681.724 253.954L676.893 329.481L641.988 327.296L642.977 290.802L646.928 272.405L656.699 245.66L662.512 236.822L669.432 226.412Z" fill="black"/>
<path d="M681.724 254.422L677.326 322.712L676.864 329.949L657.403 328.73L656.67 328.684L642.01 327.764L642.999 291.261L646.95 272.865L656.721 246.12L662.534 237.282L669.453 226.834L671.301 224.12C671.301 224.12 672.525 231.924 677.025 228.482L677.121 228.413C681.519 225.5 681.724 254.422 681.724 254.422Z" fill="#1D2366"/>
<path d="M647.442 266.472C647.442 266.472 645.69 270.304 642.171 269.683C638.653 269.063 638.66 283.481 638.66 283.481C638.66 283.481 636.322 285.781 634.709 283.788C633.097 281.795 628.845 288.533 628.845 288.533L602.208 289.759C602.208 289.759 614.06 295.424 611.737 312.564C611.737 312.564 651.979 309.957 653.298 305.979C654.618 302.001 647.442 266.472 647.442 266.472Z" fill="white"/>
<path opacity="0.03" d="M647.442 266.472C647.442 266.472 645.69 270.304 642.171 269.683C638.653 269.063 638.66 283.481 638.66 283.481C638.66 283.481 636.322 285.781 634.709 283.788C633.097 281.795 628.845 288.533 628.845 288.533L602.208 289.759C602.208 289.759 614.06 295.424 611.737 312.564C611.737 312.564 651.979 309.957 653.298 305.979C654.618 302.001 647.442 266.472 647.442 266.472Z" fill="black"/>
<path d="M570.029 298.766L577.051 305.036L634.856 317.738L627.687 310.088L570.029 298.766Z" fill="white"/>
<path d="M669.542 228.827C668.581 230.36 665.833 238.209 663.538 245.062C661.625 250.773 660.027 255.794 660.027 255.794C660.027 255.794 656.296 281.197 654.39 285.788C652.485 290.38 653.518 308.286 653.518 308.286L646.415 352.508C646.415 352.508 643.197 375.312 638.228 388.934C633.324 402.34 627.863 408.626 627.694 408.825C629.893 405.713 641.878 344.436 641.878 344.436L645.836 267.154C645.836 267.154 646.415 259.81 647.002 253.532C647.588 247.255 659.463 238.685 659.463 238.685L670.912 221.66C672.063 223.27 671.293 226.075 669.542 228.827Z" fill="white"/>
<path d="M639.686 328.147C639.686 328.147 622.827 327.381 614.662 317.124C606.496 306.868 633.536 313.031 633.536 313.031L640.566 314.718L639.686 328.147Z" fill="#FFB0B1"/>
<path opacity="0.1" d="M718.418 445.527C717.516 448.868 717.37 452.382 717.993 455.791C699.602 457.156 679.928 451.958 679.928 451.958C676.263 455.485 666.609 460.682 666.609 460.682L661.346 392.46C657.982 383.261 656.663 335.069 656.663 335.069C656.663 335.069 656.963 332.547 657.396 328.768C657.396 328.676 657.396 328.576 657.432 328.485C658.744 317.929 661.346 298.114 662.622 295.439C664.381 291.76 657.212 281.971 657.212 281.971L660.474 252.881L660.87 249.37C667.746 246.158 673.016 235.902 673.016 235.902L677.062 228.49C681.46 225.538 681.687 254.46 681.687 254.46L677.289 322.751L691.861 318.543C691.861 318.543 720.903 436.804 718.418 445.527Z" fill="black"/>
<path d="M737.293 450.241C717.245 460.651 680.808 451.008 680.808 451.008C677.143 454.534 667.489 459.731 667.489 459.731L662.219 391.509C658.862 382.311 657.542 334.119 657.542 334.119C657.542 334.119 661.779 298.16 663.538 294.489C664.051 293.415 663.802 291.821 663.194 290.104C660.203 281.931 659.102 273.135 659.983 264.433L661.391 251.93L661.779 248.427C668.662 245.208 673.932 234.952 673.932 234.952L677.597 228.237L684.341 215.865L687.537 210.008L688.079 210.522L692.221 214.447C692.221 214.447 693.98 215.98 696.619 218.279C702.358 223.339 712.276 232.246 717.392 237.696C721.893 242.494 723.315 261.16 723.725 275.21C723.996 284.462 723.835 291.714 723.835 291.714C719.298 299.525 731.165 362.235 731.165 362.235C733.929 374.354 737.293 450.241 737.293 450.241Z" fill="white"/>
<path opacity="0.03" d="M698.811 234.798C698.811 234.798 685.052 262.187 686.65 272.596C688.248 283.006 692.793 294.787 690.601 297.539C689.848 298.582 688.874 299.428 687.757 300.012C686.639 300.596 685.407 300.901 684.158 300.904C681.959 301.058 676.095 305.343 676.095 305.803C676.095 306.263 670.678 306.263 665.833 308.409C660.987 310.555 653.833 311.774 653.833 311.774C653.833 311.774 639.906 311.314 638.609 312.694C637.311 314.074 635.977 322.329 638.755 328.914C641.533 335.498 644.619 340.412 646.95 341.309C649.281 342.206 664.073 337.024 676.073 335.797C688.072 334.571 701.098 324.629 701.098 324.629C701.098 324.629 715.442 319.263 717.957 310.241C720.471 301.219 714.885 251.631 714.885 251.631C714.885 251.631 710.663 228.52 698.811 234.798Z" fill="black"/>
<path opacity="0.03" d="M697.051 232.499C697.051 232.499 683.293 259.895 684.905 270.297C686.518 280.699 691.048 292.488 688.849 295.248C688.099 296.291 687.127 297.139 686.01 297.722C684.893 298.306 683.662 298.611 682.413 298.613C680.214 298.766 674.35 303.051 674.35 303.511C674.35 303.971 668.933 303.971 664.088 306.109C659.243 308.248 652.089 309.474 652.089 309.474C652.089 309.474 638.162 309.015 636.872 310.394C635.581 311.774 634.233 320.037 637.018 326.614C639.804 333.191 642.882 338.112 645.213 339.009C647.544 339.906 662.336 334.724 674.335 333.505C686.335 332.287 699.36 322.329 699.36 322.329C699.36 322.329 713.698 316.964 716.183 307.949C718.668 298.935 713.111 249.332 713.111 249.332C713.111 249.332 708.904 226.228 697.051 232.499Z" fill="black"/>
<path d="M698.378 233.418C698.378 233.418 684.619 260.815 686.232 271.216C687.845 281.618 692.375 293.408 690.183 296.16C689.433 297.206 688.46 298.055 687.342 298.64C686.223 299.226 684.99 299.531 683.74 299.532C681.541 299.686 675.677 303.971 675.677 304.423C675.677 304.875 670.267 304.883 665.415 307.029C660.562 309.175 653.415 310.394 653.415 310.394C653.415 310.394 639.488 309.934 638.191 311.314C636.893 312.694 635.559 320.957 638.337 327.534C641.116 334.111 644.201 339.032 646.532 339.929C648.863 340.826 663.655 335.644 675.655 334.417C687.654 333.191 700.68 323.249 700.68 323.249C700.68 323.249 715.024 317.883 717.539 308.861C720.053 299.839 714.504 250.252 714.504 250.252C714.504 250.252 710.223 227.179 698.378 233.418Z" fill="white"/>
<path opacity="0.1" d="M698.078 306.899C698.078 306.899 687.082 304.599 690.909 308.432C694.735 312.265 694.713 315.622 699.397 315.469C704.081 315.315 698.078 306.899 698.078 306.899Z" fill="black"/>
<path opacity="0.1" d="M716.659 389.363C716.659 389.363 711.689 392.881 721.196 400.991C730.704 409.101 716.659 389.363 716.659 389.363Z" fill="black"/>
<path opacity="0.1" d="M707.174 418.284C707.174 418.744 705.415 435.148 711.997 439.249C718.579 443.35 707.174 418.284 707.174 418.284Z" fill="black"/>
<path d="M602.662 289.721C597.355 289.912 585.891 291.606 591.836 303.204C597.091 313.468 605.924 306.608 610.894 301.403C609.681 296.55 606.735 292.369 602.662 289.721Z" fill="#FFB0B1"/>
<path opacity="0.1" d="M696.619 218.747C690.989 222.771 686.269 226.167 685.345 226.872C682.824 228.827 678.015 240.302 674.915 246.158C672.444 250.873 664.418 252.084 661.391 252.383L661.779 248.88C668.662 245.66 673.932 235.404 673.932 235.404L687.537 210.461L692.221 214.914C692.221 214.914 693.98 216.447 696.619 218.747Z" fill="black"/>
<path d="M696.619 218.287C690.989 222.311 686.269 225.707 685.345 226.42C682.824 228.367 678.015 239.842 674.915 245.698C672.444 250.413 664.418 251.624 661.391 251.923L661.779 248.42C668.662 245.2 673.932 234.944 673.932 234.944L687.537 210.001L692.221 214.439C692.221 214.439 693.98 215.957 696.619 218.287Z" fill="#DCE7FF"/>
<path d="M685.785 198.756C685.788 203.357 684.454 207.851 681.959 211.641C679.012 216.123 674.627 219.351 669.599 220.741C664.571 222.13 659.233 221.589 654.554 219.215C649.875 216.841 646.165 212.791 644.096 207.801C642.028 202.811 641.739 197.211 643.281 192.017C644.824 186.823 648.095 182.38 652.503 179.492C656.91 176.605 662.161 175.466 667.303 176.281C672.445 177.096 677.137 179.812 680.528 183.935C683.919 188.059 685.784 193.317 685.785 198.756Z" fill="#FFB0B1"/>
<path opacity="0.1" d="M723.725 275.218C720.748 273.303 718.324 270.58 716.71 267.338C715.486 264.808 714.673 261.888 712.583 260.094C710.7 258.484 708.185 258.093 705.84 257.373C698.129 254.989 691.663 247.63 691.422 239.229C691.304 235.273 692.484 231.326 691.949 227.409C691.645 225.192 690.802 223.094 689.501 221.315C688.855 220.464 688.147 219.667 687.383 218.931C686.357 217.919 685.279 216.938 684.341 215.865C683.75 215.2 683.233 214.467 682.801 213.68C682.453 213.036 682.17 212.355 681.958 211.649C680.492 206.958 681.827 201.393 680.214 196.648L680.126 196.387C679.518 194.701 678.279 193.014 676.556 192.884C674.834 192.754 673.36 194.248 671.718 194.915C668.281 196.31 664.572 193.934 661.706 191.512C658.84 189.09 655.607 186.322 651.964 186.859C649.552 187.219 647.647 188.936 645.426 189.825C644.924 190.028 644.407 190.185 643.879 190.293C645.759 185.391 649.212 181.327 653.646 178.798C658.08 176.27 663.217 175.435 668.176 176.437C673.134 177.439 677.604 180.216 680.818 184.29C684.031 188.365 685.787 193.482 685.785 198.763C685.787 200.358 685.628 201.949 685.308 203.508C685.345 203.615 685.382 203.715 685.426 203.822C686.276 206.122 687.236 208.483 688.079 210.522L692.221 214.447C692.221 214.447 693.98 215.98 696.619 218.279C702.358 223.339 712.276 232.246 717.392 237.696C721.893 242.51 723.3 261.167 723.725 275.218Z" fill="black"/>
<path d="M645.169 175.821C646.217 173.59 646.738 171.091 647.991 168.976C649.831 165.909 653.042 163.947 656.34 162.759C664.953 159.655 683.154 155.147 688.592 162.759C689.663 164.292 690.55 165.994 692.03 167.052C693.159 167.856 694.522 168.201 695.761 168.807C699.228 170.509 701.442 174.219 702.622 178.005C703.802 181.792 704.154 185.855 705.019 189.756C706.126 194.762 708.068 199.507 710.003 204.221C712.283 209.786 714.702 215.558 719.1 219.49C725.103 224.856 726.43 232.453 732.001 238.34C738.598 245.33 738.385 256.867 734.984 266.027C734.537 267.23 734.031 268.488 734.207 269.768C734.383 271.048 735.292 272.213 736.15 273.232L739.756 277.487C731.224 279.641 721.57 274.98 717.597 266.801C716.373 264.272 715.56 261.359 713.463 259.557C711.587 257.948 709.065 257.564 706.727 256.844C699.016 254.452 692.551 247.086 692.309 238.685C692.191 234.737 693.372 230.789 692.837 226.88C692.539 224.648 691.693 222.535 690.381 220.748C688.365 217.996 685.323 216.148 683.681 213.082C680.903 207.954 683.014 201.293 681.013 195.789C680.397 194.103 679.166 192.416 677.443 192.286C675.721 192.156 674.248 193.65 672.598 194.317C669.168 195.712 665.459 193.344 662.593 190.914C659.727 188.484 656.494 185.724 652.844 186.269C650.432 186.621 648.534 188.338 646.313 189.235C644.671 189.894 641.343 190.485 639.906 189.036C636.872 186.115 643.901 178.55 645.169 175.821Z" fill="#591D4B"/>
<path opacity="0.1" d="M719.635 264.272C718.404 261.742 717.597 258.829 715.501 257.036C713.624 255.426 711.103 255.035 708.757 254.314C701.053 251.93 694.588 244.564 694.339 236.163C694.222 232.215 695.402 228.26 694.874 224.35C694.567 222.133 693.722 220.035 692.419 218.256C690.395 215.504 687.353 213.657 685.719 210.591C682.941 205.47 685.052 198.809 683.043 193.298C682.435 191.619 681.196 189.933 679.481 189.795C677.766 189.657 676.278 191.167 674.636 191.834C671.205 193.229 667.489 190.853 664.63 188.43C661.772 186.008 658.524 183.241 654.881 183.777C652.47 184.138 650.564 185.855 648.35 186.744C646.708 187.403 643.373 188.001 641.936 186.552C638.916 183.486 645.946 175.936 647.207 173.222C648.255 170.984 648.775 168.493 650.036 166.377C650.102 166.262 650.175 166.147 650.249 166.032C649.306 166.849 648.492 167.817 647.837 168.899C646.584 171.015 646.063 173.498 645.015 175.744C643.747 178.458 636.717 186.031 639.745 189.074C641.211 190.531 644.509 189.933 646.151 189.274C648.35 188.377 650.271 186.66 652.682 186.307C656.347 185.763 659.573 188.53 662.431 190.952C665.29 193.375 669.028 195.751 672.444 194.356C674.086 193.689 675.523 192.186 677.282 192.324C679.041 192.462 680.214 194.141 680.852 195.827C682.853 201.331 680.742 207.992 683.52 213.121C685.162 216.133 688.204 218.019 690.22 220.786C691.531 222.574 692.377 224.686 692.675 226.918C693.21 230.828 692.03 234.775 692.147 238.723C692.389 247.155 698.854 254.491 706.566 256.882C708.889 257.603 711.425 257.986 713.302 259.596C715.406 261.397 716.234 264.31 717.436 266.84C721.409 275.018 731.063 279.679 739.595 277.525L737.894 275.517C730.498 275.632 723.014 271.232 719.635 264.272Z" fill="black"/>
<path opacity="0.1" d="M669.102 229.287C668.142 230.82 665.393 238.669 663.098 245.522C660.951 244.648 659.001 239.076 659.001 239.076L670.451 222.043C671.623 223.729 670.854 226.527 669.102 229.287Z" fill="black"/>
<path d="M669.541 228.827C668.581 230.36 665.832 238.209 663.538 245.062C661.39 244.196 659.441 238.616 659.441 238.616L670.89 221.591C672.063 223.27 671.293 226.075 669.541 228.827Z" fill="#DCE7FF"/>
<path d="M602.97 307.136L596.622 286.202C596.547 285.957 596.519 285.699 596.539 285.443C596.56 285.186 596.629 284.936 596.742 284.708C596.855 284.479 597.01 284.276 597.198 284.11C597.387 283.945 597.604 283.819 597.839 283.742C598.311 283.588 598.823 283.635 599.262 283.873C599.702 284.111 600.033 284.522 600.185 285.014L606.532 305.925L605.902 310.302L602.97 307.136Z" fill="#BE8B87"/>
<path opacity="0.1" d="M597.223 284.363C597.697 284.206 598.21 284.252 598.651 284.491C599.092 284.729 599.425 285.141 599.576 285.635L605.924 306.546L605.448 309.827L605.909 310.333L606.54 305.956L600.155 285.045C600.004 284.552 599.672 284.142 599.233 283.904C598.794 283.665 598.282 283.618 597.81 283.772C597.412 283.907 597.069 284.177 596.835 284.539C596.959 284.469 597.089 284.41 597.223 284.363Z" fill="white"/>
<path d="M602.97 307.137L606.532 305.956L606.012 309.543L605.902 310.333L604.861 309.198L602.97 307.137Z" fill="#EFC8C4"/>
<path d="M604.861 309.198C604.923 309.117 605 309.049 605.088 308.999C605.14 308.965 605.2 308.947 605.261 308.947C605.322 308.947 605.381 308.965 605.433 308.999C605.483 309.062 605.525 309.132 605.557 309.206C605.606 309.291 605.672 309.363 605.751 309.417C605.829 309.472 605.919 309.507 606.012 309.52L605.902 310.287L604.861 309.198Z" fill="#727A9C"/>
<path d="M596.585 293.638C596.585 293.638 609.318 293.561 606.32 299.226C603.322 304.891 598.638 305.573 598.638 305.573L596.585 293.638Z" fill="#FFB0B1"/>
<path d="M517.399 39.4154H516.849C494.976 39.4154 475.632 51.519 464.505 69.3794C453.378 51.519 434.034 39.4154 412.161 39.4154H411.612C395.197 39.579 379.507 46.5105 367.951 58.7036C356.396 70.8967 349.909 87.3661 349.9 104.533C349.9 125.85 358.828 156.098 376.237 180.987C409.405 228.413 464.505 269.906 464.505 269.906C464.505 269.906 519.605 228.421 552.766 180.987C570.183 156.098 579.103 125.85 579.103 104.533C579.094 87.3674 572.608 70.8992 561.055 58.7063C549.501 46.5134 533.813 39.581 517.399 39.4154ZM509.534 184.636C507.043 184.626 504.613 183.829 502.563 182.349C500.513 180.868 498.939 178.775 498.048 176.342H484.971C484.11 176.336 483.272 176.05 482.574 175.522C481.876 174.994 481.353 174.252 481.078 173.399L477.062 160.743L464.351 207.188C464.104 208.082 463.586 208.868 462.874 209.427C462.163 209.987 461.298 210.291 460.408 210.292H460.151C459.222 210.245 458.337 209.866 457.644 209.219C456.95 208.572 456.49 207.695 456.34 206.735L443.241 124.348L433.668 173.1C433.448 174.026 432.938 174.848 432.22 175.436C431.501 176.024 430.615 176.343 429.702 176.342H411.282C410.73 176.367 410.178 176.274 409.661 176.07C409.144 175.866 408.672 175.554 408.273 175.154C407.874 174.754 407.557 174.274 407.34 173.743C407.123 173.211 407.011 172.639 407.011 172.061C407.011 171.483 407.123 170.911 407.34 170.379C407.557 169.848 407.874 169.368 408.273 168.968C408.672 168.568 409.144 168.256 409.661 168.052C410.178 167.848 410.73 167.755 411.282 167.78H426.477L440.038 102.233C440.26 101.264 440.798 100.406 441.558 99.8055C442.319 99.205 443.256 98.8995 444.208 98.9411C445.16 98.9827 446.069 99.369 446.779 100.034C447.489 100.699 447.956 101.601 448.101 102.586L461.478 186.629L472.869 145.075C473.106 144.2 473.607 143.428 474.298 142.876C474.989 142.323 475.833 142.019 476.702 142.009H476.783C477.645 142.009 478.484 142.294 479.182 142.822C479.879 143.351 480.399 144.096 480.668 144.952L487.932 167.803H497.886C498.594 165.554 499.882 163.554 501.608 162.023C503.334 160.491 505.432 159.488 507.669 159.125C509.905 158.761 512.195 159.051 514.284 159.962C516.373 160.873 518.181 162.37 519.508 164.288C520.835 166.206 521.63 168.47 521.804 170.83C521.979 173.19 521.526 175.555 520.496 177.663C519.467 179.771 517.9 181.541 515.97 182.777C514.039 184.013 511.819 184.667 509.556 184.667L509.534 184.636Z" fill="#5811B0"/>
</g>
<defs>
<linearGradient id="paint0_linear_1239_393" x1="261.192" y1="593.967" x2="261.192" y2="122.286" gradientUnits="userSpaceOnUse">
<stop stop-color="#808080" stop-opacity="0.25"/>
<stop offset="0.54" stop-color="#808080" stop-opacity="0.12"/>
<stop offset="1" stop-color="#808080" stop-opacity="0.1"/>
</linearGradient>
<linearGradient id="paint1_linear_1239_393" x1="654.889" y1="588.004" x2="654.889" y2="157.209" gradientUnits="userSpaceOnUse">
<stop stop-color="#808080" stop-opacity="0.25"/>
<stop offset="0.54" stop-color="#808080" stop-opacity="0.12"/>
<stop offset="1" stop-color="#808080" stop-opacity="0.1"/>
</linearGradient>
<clipPath id="clip0_1239_393">
<rect width="810" height="600" fill="white"/>
</clipPath>
</defs>
</svg>
