<svg width="84" height="84" viewBox="0 0 84 84" fill="none" xmlns="http://www.w3.org/2000/svg">
<circle cx="42" cy="42" r="42" fill="url(#paint0_linear_1245_1108)"/>
<path d="M38.0302 41.0227C37.8552 41.0052 37.6452 41.0052 37.4527 41.0227C33.2877 40.8827 29.9802 37.4702 29.9802 33.2702C29.9802 28.9827 33.4452 25.5002 37.7502 25.5002C42.0377 25.5002 45.5202 28.9827 45.5202 33.2702C45.5027 37.4702 42.1952 40.8827 38.0302 41.0227Z" stroke="#00AC4F" stroke-width="2.625" stroke-linecap="round" stroke-linejoin="round"/>
<path d="M50.7172 28.9998C54.1122 28.9998 56.8422 31.7473 56.8422 35.1248C56.8422 38.4323 54.2172 41.1273 50.9447 41.2498C50.8047 41.2323 50.6472 41.2323 50.4897 41.2498" stroke="#00AC4F" stroke-width="2.625" stroke-linecap="round" stroke-linejoin="round"/>
<path d="M29.2805 47.4798C25.0455 50.3148 25.0455 54.9348 29.2805 57.7523C34.093 60.9723 41.9855 60.9723 46.798 57.7523C51.033 54.9173 51.033 50.2973 46.798 47.4798C42.003 44.2773 34.1105 44.2773 29.2805 47.4798Z" stroke="#00AC4F" stroke-width="2.625" stroke-linecap="round" stroke-linejoin="round"/>
<path d="M54.0947 57.0002C55.3547 56.7377 56.5447 56.2302 57.5247 55.4777C60.2547 53.4302 60.2547 50.0527 57.5247 48.0052C56.5622 47.2702 55.3897 46.7802 54.1472 46.5002" stroke="#00AC4F" stroke-width="2.625" stroke-linecap="round" stroke-linejoin="round"/>
<defs>
<linearGradient id="paint0_linear_1245_1108" x1="74.55" y1="2.14197e-06" x2="42" y2="84" gradientUnits="userSpaceOnUse">
<stop stop-color="#D3FFE7"/>
<stop offset="1" stop-color="#EFFFF6"/>
</linearGradient>
</defs>
</svg>
