<svg width="88" height="78" viewBox="0 0 88 78" fill="none" xmlns="http://www.w3.org/2000/svg">
<path d="M43.0279 26.84L19.5567 43.9745V62.4676C19.5567 62.9464 19.7713 63.4056 20.1533 63.7442C20.5353 64.0828 21.0534 64.273 21.5936 64.273L35.8594 64.2403C36.3978 64.2379 36.9133 64.0466 37.2931 63.7083C37.6729 63.37 37.8861 62.9121 37.8861 62.4349V51.6351C37.8861 51.1563 38.1007 50.6971 38.4826 50.3585C38.8646 50.0199 39.3827 49.8297 39.9229 49.8297H48.0705C48.6107 49.8297 49.1288 50.0199 49.5108 50.3585C49.8927 50.6971 50.1073 51.1563 50.1073 51.6351V62.427C50.1065 62.6645 50.1586 62.8999 50.2606 63.1196C50.3625 63.3393 50.5125 63.539 50.7017 63.7072C50.8909 63.8755 51.1157 64.009 51.3633 64.1001C51.6108 64.1912 51.8762 64.238 52.1442 64.238L66.4049 64.273C66.9451 64.273 67.4632 64.0828 67.8452 63.7442C68.2272 63.4056 68.4418 62.9464 68.4418 62.4676V43.9621L44.9757 26.84C44.6998 26.6429 44.3561 26.5354 44.0018 26.5354C43.6475 26.5354 43.3038 26.6429 43.0279 26.84ZM80.103 38.486L69.4603 30.7103V15.0811C69.4603 14.7219 69.2993 14.3775 69.0128 14.1236C68.7263 13.8696 68.3378 13.727 67.9326 13.727H60.8035C60.3983 13.727 60.0098 13.8696 59.7233 14.1236C59.4368 14.3775 59.2758 14.7219 59.2758 15.0811V23.2743L47.8782 14.9626C46.7844 14.1648 45.4119 13.7286 43.9954 13.7286C42.5789 13.7286 41.2064 14.1648 40.1126 14.9626L7.88791 38.486C7.73322 38.5993 7.60523 38.7386 7.51127 38.8958C7.41731 39.053 7.35921 39.225 7.3403 39.4021C7.32138 39.5792 7.34202 39.7579 7.40103 39.9279C7.46004 40.0979 7.55627 40.2559 7.68422 40.393L10.9305 43.891C11.0581 44.0285 11.215 44.1424 11.3924 44.2261C11.5697 44.3098 11.7639 44.3616 11.9638 44.3787C12.1638 44.3958 12.3656 44.3778 12.5577 44.3256C12.7497 44.2735 12.9283 44.1883 13.0832 44.0749L43.0279 22.2136C43.3038 22.0165 43.6475 21.909 44.0018 21.909C44.3561 21.909 44.6998 22.0165 44.9757 22.2136L74.9216 44.0749C75.0763 44.1883 75.2546 44.2736 75.4464 44.3259C75.6382 44.3782 75.8398 44.3965 76.0396 44.3798C76.2394 44.363 76.4335 44.3115 76.6108 44.2282C76.7882 44.1449 76.9452 44.0315 77.0731 43.8944L80.3194 40.3964C80.4472 40.2585 80.543 40.0997 80.6013 39.9289C80.6596 39.7581 80.6793 39.5788 80.6592 39.4013C80.6391 39.2238 80.5796 39.0515 80.4841 38.8945C80.3887 38.7374 80.2591 38.5986 80.103 38.486Z" fill="#A863FF"/>
</svg>
