<svg width="44" height="44" viewBox="0 0 44 44" fill="none" xmlns="http://www.w3.org/2000/svg">
<rect width="44" height="44" rx="10" fill="#31353F"/>
<path d="M29.9999 13.5H15.4999C15.1899 13.5 14.8899 13.65 14.6999 13.9L13.1999 15.9C12.7099 16.56 13.1799 17.5 13.9999 17.5H28.4999C28.8099 17.5 29.1099 17.35 29.2999 17.1L30.7999 15.1C31.2899 14.44 30.8199 13.5 29.9999 13.5Z" fill="#1ECB4F"/>
<path d="M13.9999 20H28.4999C28.8099 20 29.1099 20.15 29.2999 20.4L30.7999 22.4C31.2899 23.06 30.8199 24 29.9999 24H15.4999C15.1899 24 14.8899 23.85 14.6999 23.6L13.1999 21.6C12.7099 20.94 13.1799 20 13.9999 20Z" fill="#1ECB4F"/>
<path d="M29.9999 26.5H15.4999C15.1899 26.5 14.8899 26.65 14.6999 26.9L13.1999 28.9C12.7099 29.56 13.1799 30.5 13.9999 30.5H28.4999C28.8099 30.5 29.1099 30.35 29.2999 30.1L30.7999 28.1C31.2899 27.44 30.8199 26.5 29.9999 26.5Z" fill="#1ECB4F"/>
</svg>
