<svg width="37" height="37" viewBox="0 0 37 37" fill="none" xmlns="http://www.w3.org/2000/svg">
<path opacity="0.25" fill-rule="evenodd" clip-rule="evenodd" d="M18.5 35.9104C28.165 35.9104 36 28.0754 36 18.4104C36 8.74542 28.165 0.9104 18.5 0.9104C8.83502 0.9104 1 8.74542 1 18.4104C1 28.0754 8.83502 35.9104 18.5 35.9104Z" stroke="white" stroke-width="1.5"/>
<path d="M14.4837 14.8775C15.303 14.8775 15.9672 14.2133 15.9672 13.3939C15.9672 12.5746 15.303 11.9104 14.4837 11.9104C13.6643 11.9104 13.0001 12.5746 13.0001 13.3939C13.0001 14.2133 13.6643 14.8775 14.4837 14.8775Z" fill="white"/>
<path d="M15.7198 15.8684H13.2473C13.1108 15.8684 13 15.9792 13 16.1157V23.5334C13 23.6699 13.1108 23.7807 13.2473 23.7807H15.7198C15.8563 23.7807 15.9671 23.6699 15.9671 23.5334V16.1157C15.9671 15.9792 15.8563 15.8684 15.7198 15.8684Z" fill="white"/>
<path d="M23.088 15.457C22.0313 15.0951 20.7094 15.413 19.9167 15.9832C19.8895 15.8769 19.7926 15.7978 19.6774 15.7978H17.2048C17.0683 15.7978 16.9575 15.9085 16.9575 16.045V23.4628C16.9575 23.5993 17.0683 23.71 17.2048 23.71H19.6774C19.8138 23.71 19.9246 23.5993 19.9246 23.4628V18.1319C20.3242 17.7877 20.839 17.6779 21.2603 17.8569C21.6688 18.0295 21.9027 18.4508 21.9027 19.0121V23.4628C21.9027 23.5993 22.0135 23.71 22.1499 23.71H24.6225C24.759 23.71 24.8698 23.5993 24.8698 23.4628V18.5141C24.8416 16.4822 23.8857 15.73 23.088 15.457Z" fill="white"/>
</svg>
