<svg width="58" height="32" viewBox="0 0 58 32" fill="none" xmlns="http://www.w3.org/2000/svg">
<g clip-path="url(#clip0_1236_12)">
<path d="M20.3685 0.365845C17.1432 0.365845 14.0501 1.60541 11.7695 3.81185L4.32655 11.0127C2.04594 13.2192 0.764709 16.2117 0.764709 19.3321C0.764709 25.83 6.20933 31.0976 12.9256 31.0976C16.1509 31.0976 19.244 29.8579 21.5246 27.6515L26.673 22.6706C26.673 22.6705 26.6731 22.6707 26.673 22.6706L41.6734 8.15797C42.7626 7.10419 44.2399 6.51219 45.7803 6.51219C48.3591 6.51219 50.5455 8.13831 51.3035 10.3886L56.0376 5.80839C53.8779 2.53585 50.0911 0.365845 45.7803 0.365845C42.555 0.365845 39.4618 1.60541 37.1813 3.81185L17.0325 23.3054C15.9433 24.3592 14.466 24.9512 12.9256 24.9512C9.71795 24.9512 7.11765 22.4355 7.11765 19.3321C7.11765 17.8418 7.72956 16.4126 8.81876 15.3588L16.2617 8.15797C17.3509 7.10419 18.8281 6.51219 20.3685 6.51219C22.9475 6.51219 25.1337 8.13839 25.8918 10.3887L30.626 5.8085C28.4663 2.53591 24.6794 0.365845 20.3685 0.365845Z" fill="#3A6FF8"/>
<path d="M16.7168 23.3054C15.6275 24.3592 14.1503 24.9512 12.6099 24.9512C10.0313 24.9512 7.84519 23.3255 7.08697 21.0756L2.35297 25.6557C4.51275 28.9278 8.29942 31.0976 12.6099 31.0976C15.8352 31.0976 18.9283 29.8579 21.2089 27.6515L41.3577 8.15797C42.4469 7.10419 43.9242 6.51219 45.4646 6.51219C48.6723 6.51219 51.2725 9.02793 51.2725 12.1313C51.2725 13.6216 50.6606 15.0508 49.5714 16.1046L42.1285 23.3054C41.0393 24.3592 39.562 24.9512 38.0217 24.9512C35.4429 24.9512 33.2566 23.3252 32.4985 21.0751L27.7645 25.6553C29.9242 28.9277 33.711 31.0976 38.0217 31.0976C41.2469 31.0976 44.3401 29.8579 46.6207 27.6515L54.0636 20.4507C56.3442 18.2442 57.6255 15.2517 57.6255 12.1313C57.6255 5.6334 52.1809 0.365845 45.4646 0.365845C42.2393 0.365845 39.1461 1.60541 36.8655 3.81185L16.7168 23.3054Z" fill="#3A6FF8"/>
</g>
<defs>
<clipPath id="clip0_1236_12">
<rect width="57.1765" height="30.7317" fill="white" transform="translate(0.764709 0.365845)"/>
</clipPath>
</defs>
</svg>
