<svg width="37" height="37" viewBox="0 0 37 37" fill="none" xmlns="http://www.w3.org/2000/svg">
<path opacity="0.25" fill-rule="evenodd" clip-rule="evenodd" d="M18.5 35.9104C28.165 35.9104 36 28.0754 36 18.4104C36 8.74542 28.165 0.9104 18.5 0.9104C8.83502 0.9104 1 8.74542 1 18.4104C1 28.0754 8.83502 35.9104 18.5 35.9104Z" stroke="white" stroke-width="1.5"/>
<path d="M24.2202 15.1751C24.139 15.0833 24.0081 15.0602 23.9007 15.1168C23.8339 15.152 23.7083 15.1982 23.5592 15.2438C23.7473 14.9866 23.8985 14.6986 23.9653 14.4397C23.9942 14.3281 23.952 14.2105 23.8601 14.144C23.7682 14.0781 23.6458 14.0781 23.5539 14.144C23.4091 14.2479 22.7102 14.5601 22.2683 14.6612C21.2696 13.7615 20.1074 13.6681 18.8992 14.3935C17.9171 14.9833 17.7034 16.1825 17.7451 16.9135C15.4971 16.6909 14.0998 15.4697 13.3132 14.4589C13.2582 14.388 13.1695 14.3507 13.0861 14.3562C12.9985 14.3628 12.9194 14.4128 12.8745 14.4903C12.5026 15.1361 12.3995 15.85 12.5774 16.5551C12.6747 16.9399 12.8446 17.279 13.0418 17.5538C12.9472 17.506 12.8558 17.4461 12.7698 17.3746C12.6907 17.3076 12.5801 17.2949 12.4866 17.3394C12.3936 17.3851 12.3343 17.4818 12.3343 17.5879C12.3343 18.7986 13.0706 19.6066 13.7583 20.0287C13.6472 20.0149 13.5312 19.9896 13.4142 19.9528C13.3138 19.9215 13.2048 19.9528 13.1353 20.0342C13.0658 20.115 13.0493 20.2304 13.0926 20.3288C13.4789 21.2076 14.2109 21.8121 15.1166 22.0314C14.3258 22.509 13.2673 22.7432 12.298 22.6283C12.1724 22.6102 12.0527 22.6921 12.0132 22.8163C11.9736 22.9405 12.0255 23.0768 12.1361 23.1405C13.6066 23.9897 14.936 24.2931 16.0849 24.2931C17.7568 24.2931 19.0472 23.6511 19.8327 23.1142C21.9503 21.6687 23.2701 19.0734 23.0863 16.7514C23.4256 16.4936 23.9333 16.0176 24.248 15.5059C24.3132 15.4026 24.3014 15.2663 24.2202 15.1751Z" fill="white"/>
</svg>
